<?xml version="1.0" standalone="no"?>
<!DOCTYPE svg PUBLIC "-//W3C//DTD SVG 20010904//EN"
 "http://www.w3.org/TR/2001/REC-SVG-20010904/DTD/svg10.dtd">
<svg version="1.0" xmlns="http://www.w3.org/2000/svg"
 width="1280.000000pt" height="335.000000pt" viewBox="0 0 1280.000000 335.000000"
 preserveAspectRatio="xMidYMid meet">

<g transform="translate(0.000000,335.000000) scale(0.100000,-0.100000)"
fill="#000000" stroke="none">
<path d="M5210 1670 c0 -660 3 -1000 10 -1000 7 0 10 340 10 1000 0 660 -3
1000 -10 1000 -7 0 -10 -340 -10 -1000z"/>
<path d="M922 2368 l3 -113 812 -3 813 -2 0 -405 0 -405 290 0 290 0 0 405 0
405 815 0 815 0 0 115 0 115 -1920 0 -1921 0 3 -112z"/>
<path d="M7958 2235 c-24 -40 -25 -45 -10 -45 17 0 92 68 92 83 0 4 -12 7 -28
7 -22 0 -33 -9 -54 -45z"/>
<path d="M5610 2035 l0 -235 25 0 25 0 0 235 0 235 -25 0 -25 0 0 -235z"/>
<path d="M7220 2241 c0 -26 14 -41 41 -41 5 0 9 16 9 35 0 31 -3 35 -25 35
-21 0 -25 -5 -25 -29z"/>
<path d="M930 2132 c-15 -5 -13 -564 2 -615 8 -26 22 -46 42 -58 30 -18 62
-19 718 -17 l686 3 26 24 26 25 -2 320 -3 321 -310 0 -310 0 -5 -190 c-3 -117
-9 -198 -17 -210 -46 -82 -164 -85 -205 -6 -8 18 -14 87 -18 216 l-5 190 -307
0 c-170 0 -312 -1 -318 -3z"/>
<path d="M4134 2131 c-2 -2 -4 -60 -4 -128 0 -67 -3 -123 -8 -123 -4 0 -63 56
-132 125 l-125 125 -307 0 -308 0 0 -345 0 -345 320 0 319 0 3 138 3 139 123
-139 123 -138 310 0 309 0 0 345 0 344 -311 3 c-171 2 -313 1 -315 -1z"/>
<path d="M5760 1970 l0 -170 24 0 c24 0 24 0 28 125 4 143 13 162 87 172 35 5
46 2 66 -17 24 -23 25 -28 25 -152 l0 -128 25 0 25 0 0 125 c0 182 -18 215
-119 215 -38 0 -56 -6 -79 -25 -17 -14 -32 -25 -35 -25 -3 0 -4 11 -2 25 2 20
-2 25 -21 25 l-24 0 0 -170z"/>
<path d="M6182 2120 c-49 -30 -76 -97 -69 -172 3 -32 13 -70 22 -84 47 -72
166 -86 212 -25 17 24 26 7 18 -35 -9 -52 -54 -94 -99 -94 -43 0 -86 18 -86
37 0 8 -12 13 -30 13 -26 0 -28 -2 -21 -22 13 -34 51 -58 106 -64 68 -8 123
12 152 55 22 32 23 43 23 222 0 182 -1 189 -20 189 -13 0 -20 -7 -20 -18 0
-30 -10 -31 -35 -6 -31 31 -105 33 -153 4z m140 -40 c63 -49 50 -197 -19 -229
-84 -38 -159 46 -138 156 15 79 100 119 157 73z"/>
<path d="M6564 2121 c-70 -43 -97 -157 -56 -241 48 -97 210 -111 257 -20 8 16
15 34 15 40 0 21 -32 9 -64 -25 -24 -25 -42 -35 -64 -35 -46 0 -79 19 -97 55
-30 64 -29 65 111 65 l127 0 -7 41 c-9 58 -32 97 -69 119 -41 26 -112 26 -153
1z m145 -56 c52 -59 45 -65 -69 -65 -104 0 -110 3 -89 43 18 36 52 57 90 57
30 0 43 -7 68 -35z"/>
<path d="M6860 1970 c0 -160 1 -170 19 -170 17 0 19 11 23 121 l4 122 32 28
c37 33 84 38 120 13 21 -14 22 -22 22 -150 l0 -134 25 0 25 0 0 141 0 141 -29
29 c-24 24 -38 29 -76 29 -47 0 -105 -22 -105 -40 0 -6 -4 -10 -10 -10 -5 0
-10 11 -10 25 0 18 -5 25 -20 25 -19 0 -20 -7 -20 -170z"/>
<path d="M7220 1970 l0 -170 25 0 25 0 0 170 0 170 -25 0 -25 0 0 -170z"/>
<path d="M7429 2124 c-50 -32 -74 -81 -74 -153 1 -111 53 -171 149 -171 58 0
101 21 126 63 26 42 25 47 -6 47 -18 0 -28 -6 -31 -20 -7 -25 -51 -50 -88 -50
-34 0 -72 26 -91 61 -29 57 -26 59 111 59 l125 0 0 30 c0 45 -23 92 -59 123
-26 22 -42 27 -84 27 -30 0 -63 -7 -78 -16z m133 -47 c15 -12 30 -34 34 -49
l6 -28 -102 0 c-100 0 -101 0 -95 23 4 12 20 34 36 50 37 34 83 36 121 4z"/>
<path d="M7720 1970 l0 -170 25 0 25 0 0 104 c0 91 3 107 23 137 15 23 35 37
60 43 29 8 37 14 37 33 0 36 -45 30 -87 -12 -19 -19 -37 -35 -39 -35 -2 0 -4
16 -4 35 0 28 -4 35 -20 35 -19 0 -20 -7 -20 -170z"/>
<path d="M7940 1970 l0 -170 25 0 25 0 0 170 0 170 -25 0 -25 0 0 -170z"/>
<path d="M8145 2131 c-26 -11 -51 -41 -58 -68 -8 -34 29 -30 60 7 20 25 32 30
66 30 100 -1 112 -89 15 -103 -119 -18 -158 -44 -158 -107 0 -32 6 -47 28 -66
24 -23 34 -26 85 -22 38 3 67 12 86 26 l29 21 6 -24 c5 -21 13 -25 41 -25 28
0 35 4 35 20 0 11 -6 20 -14 20 -20 0 -26 32 -26 146 0 134 -9 147 -106 151
-38 2 -78 -1 -89 -6z m151 -203 c-7 -42 -18 -57 -53 -76 -50 -27 -123 -2 -123
42 0 34 31 56 95 66 32 5 60 12 63 14 14 14 23 -11 18 -46z"/>
<path d="M8672 2120 c-94 -57 -93 -243 1 -300 39 -24 116 -26 158 -5 27 14 69
68 69 88 0 4 -11 7 -25 7 -17 0 -29 -8 -36 -24 -30 -65 -141 -60 -174 9 -30
64 -29 65 110 65 l125 0 0 29 c0 43 -25 95 -60 125 -40 34 -118 36 -168 6z
m127 -34 c25 -13 51 -52 51 -76 0 -6 -43 -10 -100 -10 -107 0 -112 3 -86 49
26 47 84 63 135 37z"/>
<path d="M8970 1970 l0 -170 25 0 25 0 0 124 0 124 31 26 c35 30 83 34 117 10
21 -14 22 -22 22 -150 l0 -134 25 0 25 0 0 139 c0 77 -3 147 -6 156 -10 24
-58 45 -104 45 -40 0 -100 -25 -100 -42 0 -4 -4 -8 -10 -8 -5 0 -10 11 -10 25
0 18 -5 25 -20 25 -19 0 -20 -7 -20 -170z"/>
<path d="M10608 1588 c-41 -55 -42 -58 -11 -58 19 1 45 16 78 45 l50 45 -46 0
c-41 0 -50 -4 -71 -32z"/>
<path d="M5560 1570 l0 -40 70 0 70 0 0 -190 0 -190 50 0 50 0 0 190 0 190 70
0 70 0 0 40 0 40 -190 0 -190 0 0 -40z"/>
<path d="M6300 1380 l0 -230 40 0 40 0 0 230 0 230 -40 0 -40 0 0 -230z"/>
<path d="M8990 1576 c0 -36 0 -36 44 -36 43 0 44 1 42 33 -1 30 -4 32 -44 35
l-42 3 0 -35z"/>
<path d="M10280 1575 c0 -35 0 -35 45 -35 45 0 45 0 45 35 0 35 0 35 -45 35
-45 0 -45 0 -45 -35z"/>
<path d="M6000 1479 c-88 -35 -125 -150 -80 -245 25 -50 55 -72 113 -82 65
-12 121 3 156 44 17 19 31 39 31 44 0 16 -77 12 -83 -4 -8 -20 -73 -31 -102
-18 -25 12 -59 65 -48 76 4 3 60 6 125 6 l118 0 0 29 c0 59 -40 120 -97 150
-26 13 -99 13 -133 0z m114 -70 c14 -11 26 -29 26 -40 0 -17 -8 -19 -75 -19
-67 0 -75 2 -75 19 0 24 45 61 75 61 12 0 34 -9 49 -21z"/>
<path d="M6525 1466 c-55 -33 -79 -78 -80 -146 0 -62 23 -110 67 -143 34 -26
114 -37 158 -22 36 12 90 61 90 82 0 19 -59 17 -81 -3 -10 -9 -35 -18 -57 -21
-34 -5 -45 -1 -66 20 -14 14 -26 35 -26 46 0 19 7 21 123 23 l122 3 -3 30 c-6
54 -44 119 -82 137 -51 25 -117 23 -165 -6z m126 -49 c15 -11 39 -49 39 -61 0
-3 -36 -6 -80 -6 -90 0 -101 11 -54 55 29 27 69 32 95 12z"/>
<path d="M6910 1468 c-55 -38 -74 -71 -77 -141 -5 -77 22 -130 81 -160 73 -38
178 -16 216 45 28 46 23 63 -20 63 -27 0 -39 -6 -52 -27 -10 -15 -30 -31 -44
-34 -87 -22 -136 121 -67 191 34 34 68 32 103 -5 21 -23 37 -30 65 -30 36 0
37 1 30 28 -3 15 -14 35 -23 46 -44 50 -156 62 -212 24z"/>
<path d="M7284 1465 c-69 -41 -96 -122 -70 -203 18 -54 45 -85 91 -102 39 -15
117 -15 146 0 100 52 128 185 58 274 -46 59 -154 74 -225 31z m141 -58 c55
-46 40 -178 -22 -193 -31 -8 -74 4 -89 24 -20 27 -27 88 -14 127 21 64 78 83
125 42z"/>
<path d="M7610 1320 l0 -170 45 0 45 0 0 111 c0 61 4 119 10 129 5 10 23 23
41 29 27 9 33 8 54 -13 22 -22 24 -31 23 -137 l0 -114 41 -3 41 -3 1 103 c1
126 7 149 42 166 28 13 62 4 79 -22 4 -6 8 -64 8 -128 l0 -118 45 0 45 0 0
120 c0 131 -11 176 -51 204 -36 25 -108 21 -144 -8 l-30 -24 -28 24 c-40 34
-105 33 -145 -1 -33 -28 -44 -31 -41 -12 4 31 -2 37 -41 37 l-40 0 0 -170z"/>
<path d="M8210 1349 l0 -141 29 -29 c16 -16 39 -30 50 -30 12 -1 27 -2 34 -3
22 -4 72 17 90 37 17 20 17 20 17 -6 0 -25 3 -27 45 -27 l45 0 0 170 0 169
-45 -1 -45 -1 0 -109 c0 -60 -5 -118 -11 -129 -13 -25 -53 -41 -83 -33 -36 9
-46 45 -46 164 l0 110 -40 0 -40 0 0 -141z"/>
<path d="M8600 1320 l0 -170 39 0 39 0 4 115 c3 99 6 117 23 134 32 31 59 34
88 10 27 -20 27 -23 27 -140 l0 -119 46 0 46 0 -4 138 c-3 94 -8 144 -18 159
-32 49 -115 58 -174 18 l-36 -24 0 24 c0 22 -4 25 -40 25 l-40 0 0 -170z"/>
<path d="M8990 1319 l0 -170 43 3 42 3 0 165 0 165 -42 2 -43 2 0 -170z"/>
<path d="M9224 1465 c-93 -55 -107 -188 -30 -273 31 -33 39 -36 98 -40 99 -6
156 29 170 103 2 17 -3 20 -34 20 -28 1 -39 -4 -44 -17 -9 -31 -50 -51 -88
-44 -61 12 -86 108 -46 173 32 53 100 56 122 7 9 -20 18 -24 55 -24 23 0 43 2
43 5 0 3 -6 21 -14 40 -30 72 -152 98 -232 50z"/>
<path d="M9594 1475 c-30 -13 -64 -53 -64 -75 0 -5 18 -10 41 -10 30 0 46 6
59 22 12 16 28 22 53 21 46 -1 57 -9 57 -37 0 -32 -16 -43 -75 -51 -117 -16
-152 -44 -142 -115 5 -43 21 -64 55 -74 38 -13 99 -9 133 8 39 20 39 20 39 1
0 -11 11 -15 43 -15 l42 0 -3 137 c-2 76 -8 146 -14 156 -23 43 -155 62 -224
32z m146 -197 c0 -39 -7 -51 -37 -67 -50 -26 -93 -8 -93 40 0 33 6 37 62 48
68 14 68 14 68 -21z"/>
<path d="M10000 1479 c-90 -37 -128 -161 -78 -250 27 -48 55 -67 114 -78 58
-11 115 3 147 37 31 32 46 82 26 83 -8 0 -24 2 -36 5 -15 2 -26 -3 -33 -15
-28 -53 -79 -67 -118 -33 -29 24 -43 83 -31 127 21 76 87 98 133 44 22 -26 31
-30 66 -27 l40 3 -17 34 c-27 52 -64 74 -130 78 -32 1 -69 -2 -83 -8z"/>
<path d="M10280 1320 l0 -170 45 0 45 0 0 170 0 170 -45 0 -45 0 0 -170z"/>
<path d="M10530 1472 c-95 -47 -116 -189 -40 -276 69 -78 227 -59 275 34 23
44 20 145 -6 187 -42 67 -151 93 -229 55z m135 -65 c59 -50 38 -180 -30 -193
-46 -8 -73 2 -90 36 -18 34 -20 99 -4 134 22 47 83 59 124 23z"/>
<path d="M10857 1484 c-4 -4 -7 -81 -7 -171 l0 -163 45 0 45 0 0 118 c0 101 3
121 18 134 27 24 50 28 77 16 33 -15 45 -61 45 -175 l0 -93 40 0 40 0 0 124
c0 67 -5 137 -11 155 -22 62 -115 81 -181 36 l-37 -25 -3 23 c-2 16 -11 23
-33 25 -17 2 -34 0 -38 -4z"/>
<path d="M11307 1468 c-39 -23 -87 -102 -87 -143 0 -37 30 -112 54 -134 27
-26 99 -49 139 -45 45 4 100 38 120 72 l19 32 -37 0 c-22 0 -47 -8 -62 -20
-51 -40 -125 -17 -139 43 l-6 27 126 0 126 0 -6 33 c-14 81 -40 121 -93 143
-49 20 -110 17 -154 -8z m124 -51 c15 -11 39 -49 39 -61 0 -3 -36 -6 -80 -6
-90 0 -101 11 -54 55 29 27 69 32 95 12z"/>
<path d="M11670 1479 c-37 -14 -60 -49 -60 -90 0 -46 19 -63 95 -84 101 -28
115 -35 115 -61 0 -55 -119 -58 -133 -3 -4 15 -14 19 -46 19 -46 0 -46 1 -27
-44 25 -61 143 -88 228 -53 39 16 53 32 62 69 15 66 -16 97 -124 122 -35 8
-70 22 -79 30 -14 15 -14 18 1 32 24 24 89 21 106 -5 11 -15 25 -21 53 -21 44
0 43 -1 29 34 -16 42 -66 66 -135 65 -33 0 -71 -5 -85 -10z"/>
<path d="M3160 1248 c-65 -18 -100 -71 -100 -151 0 -143 195 -197 247 -69 13
31 12 32 -12 32 -15 0 -25 -6 -25 -15 0 -24 -42 -55 -75 -55 -43 0 -72 24 -86
69 -24 81 19 161 85 161 36 0 76 -24 76 -46 0 -8 10 -14 25 -14 29 0 29 1 14
33 -21 45 -90 71 -149 55z"/>
<path d="M4325 1249 c-114 -32 -136 -222 -33 -275 67 -35 153 -12 185 49 23
45 22 131 -4 165 -41 55 -94 77 -148 61z m96 -58 c24 -25 29 -37 29 -81 0 -82
-28 -119 -92 -120 -55 0 -88 44 -88 117 0 47 4 59 29 84 40 39 82 39 122 0z"/>
<path d="M910 1105 c0 -138 1 -145 20 -145 19 0 20 7 20 145 0 138 -1 145 -20
145 -19 0 -20 -7 -20 -145z"/>
<path d="M1020 1106 l0 -146 79 0 c43 0 92 5 109 11 56 19 67 108 15 132 l-24
11 22 17 c15 11 22 27 22 48 0 53 -21 65 -128 69 l-95 4 0 -146z m171 99 c5
-4 9 -20 9 -36 0 -34 -27 -49 -91 -49 l-39 0 0 49 0 48 56 -3 c30 -2 59 -6 65
-9z m17 -153 c4 -45 -19 -61 -85 -62 l-53 0 0 50 0 51 68 -3 67 -3 3 -33z"/>
<path d="M1387 1243 c-8 -13 -107 -269 -107 -276 0 -4 9 -7 19 -7 13 0 24 13
35 40 l16 41 62 -3 c60 -3 61 -4 73 -38 8 -24 19 -36 33 -38 12 -2 22 0 22 5
0 4 -24 69 -53 143 -43 109 -57 136 -74 138 -12 2 -23 -1 -26 -5z m47 -95 c9
-29 20 -59 23 -65 3 -10 -10 -13 -47 -13 -37 0 -50 3 -47 13 3 6 14 36 23 65
10 28 21 52 24 52 3 0 14 -24 24 -52z"/>
<path d="M1590 1249 c0 -2 -1 -68 -3 -147 -2 -141 -2 -142 21 -142 20 0 22 4
22 60 l0 60 53 0 c28 0 58 -4 65 -9 7 -4 16 -30 20 -57 6 -42 11 -50 31 -52
19 -3 22 0 17 13 -3 9 -6 32 -6 51 0 21 -8 42 -20 54 l-21 21 22 18 c29 24 30
75 1 103 -18 18 -36 23 -112 26 -49 3 -90 3 -90 1z m171 -51 c11 -17 11 -49 0
-67 -6 -9 -32 -16 -70 -19 l-61 -4 0 49 c0 27 2 52 5 54 10 11 119 -1 126 -13z"/>
<path d="M1870 1106 l0 -146 25 0 c24 0 25 3 25 60 l0 60 54 0 c65 0 86 -21
86 -82 0 -33 3 -38 23 -38 23 0 23 2 16 57 -5 34 -14 62 -24 69 -15 11 -15 14
4 33 28 28 28 82 0 107 -16 14 -40 19 -115 22 l-94 4 0 -146z m178 92 c17 -17
15 -54 -4 -72 -10 -11 -34 -16 -70 -16 l-54 0 0 50 0 50 58 0 c32 0 63 -5 70
-12z"/>
<path d="M2237 1243 c-7 -12 -107 -272 -107 -278 0 -4 10 -5 22 -3 14 2 25 14
33 38 12 34 13 35 73 38 l62 3 16 -41 c11 -27 22 -40 35 -40 10 0 19 4 19 8 0
5 -19 55 -41 113 -23 57 -45 119 -51 137 -7 25 -14 32 -33 32 -13 0 -26 -3
-28 -7z m46 -91 c9 -26 19 -56 23 -65 5 -15 -1 -17 -44 -17 l-50 0 21 65 c12
36 25 65 28 65 4 0 14 -22 22 -48z"/>
<path d="M2820 1105 l0 -145 105 0 c98 0 105 1 105 20 0 18 -7 20 -80 20 l-80
0 0 45 0 45 70 0 c63 0 70 2 70 20 0 18 -7 20 -70 20 l-70 0 0 40 0 40 80 0
c73 0 80 2 80 20 0 19 -7 20 -105 20 l-105 0 0 -145z"/>
<path d="M3372 1130 c3 -98 7 -123 23 -140 28 -30 87 -43 135 -29 68 20 75 35
79 170 l3 119 -26 0 -26 0 0 -114 c0 -107 -1 -116 -22 -130 -12 -9 -34 -16
-48 -16 -14 0 -36 7 -48 16 -21 14 -22 23 -22 130 l0 114 -26 0 -26 0 4 -120z"/>
<path d="M3746 1241 c-3 -4 -26 -62 -50 -127 -25 -66 -48 -127 -51 -136 -6
-14 -2 -18 17 -18 20 0 26 7 34 38 l9 37 62 3 63 3 16 -41 c11 -27 22 -40 35
-40 10 0 19 3 19 7 0 4 -24 69 -52 145 -46 119 -56 138 -75 138 -12 0 -24 -4
-27 -9z m47 -89 c9 -26 19 -56 23 -65 5 -15 -1 -17 -44 -17 l-50 0 21 65 c12
36 25 65 28 65 4 0 14 -22 22 -48z"/>
<path d="M3950 1104 l0 -147 85 5 c71 4 89 8 110 28 32 31 48 82 42 137 -9 87
-59 121 -174 122 l-63 1 0 -146z m170 84 c11 -12 21 -29 21 -37 1 -9 3 -27 4
-40 1 -14 -2 -40 -7 -59 -11 -39 -59 -65 -112 -60 l-31 3 -3 108 -3 107 55 0
c44 0 59 -5 76 -22z"/>
<path d="M4550 1105 c0 -138 1 -145 20 -145 18 0 20 7 20 60 l0 60 59 0 c68 0
78 -8 83 -70 2 -37 7 -46 24 -48 20 -3 21 1 17 50 -3 34 -11 59 -23 69 -18 15
-18 16 1 32 42 36 29 114 -21 128 -14 4 -60 7 -102 8 l-78 1 0 -145z m169 101
c6 -4 11 -23 11 -41 0 -43 -24 -57 -88 -53 -47 3 -47 3 -50 42 -2 21 -1 43 1
50 5 12 106 14 126 2z"/>
<path d="M2530 1070 c0 -18 7 -20 55 -20 48 0 55 2 55 20 0 18 -7 20 -55 20
-48 0 -55 -2 -55 -20z"/>
</g>
</svg>
