<?xml version="1.0" encoding="UTF-8"?>
<svg version="1.1" xmlns="http://www.w3.org/2000/svg" width="978" height="255">
<path d="M0 0 C322.74 0 645.48 0 978 0 C978 84.15 978 168.3 978 255 C655.26 255 332.52 255 0 255 C0 170.85 0 86.7 0 0 Z " fill="#FEFEFE" transform="translate(0,0)"/>
<path d="M0 0 C96.36 0 192.72 0 292 0 C292 5.61 292 11.22 292 17 C251.08 17 210.16 17 168 17 C168 37.46 168 57.92 168 79 C153.48 79 138.96 79 124 79 C124 58.54 124 38.08 124 17 C83.08 17 42.16 17 0 17 C0 11.39 0 5.78 0 0 Z " fill="#D01217" transform="translate(71,66)"/>
<path d="M0 0 C7.486875 -0.268125 14.97375 -0.53625 22.6875 -0.8125 C25.02287842 -0.93085205 27.35825684 -1.0492041 29.7644043 -1.17114258 C46.46398106 -1.65900327 46.46398106 -1.65900327 53.07429504 4.52241516 C55.11987408 6.74914688 56.98362266 9.06363617 58.78833008 11.48828125 C61.32369689 14.65148724 64.68870912 16.72754547 68 19 C68 12.73 68 6.46 68 0 C83.51 0 99.02 0 115 0 C115 17.16 115 34.32 115 52 C107.4925 52.268125 99.985 52.53625 92.25 52.8125 C89.90551758 52.93085205 87.56103516 53.0492041 85.14550781 53.17114258 C69.37750618 53.63502891 69.37750618 53.63502891 64.01757812 49.29443359 C60.86673795 46.1633516 58.47839613 42.67680072 56 39 C54.02 36.69 52.04 34.38 50 32 C49.67 38.6 49.34 45.2 49 52 C32.83 52 16.66 52 0 52 C0 34.84 0 17.68 0 0 Z " fill="#CE151A" transform="translate(248,93)"/>
<path d="M0 0 C15.84 0 31.68 0 48 0 C48.1875 14.1875 48.1875 14.1875 48.20776367 18.63745117 C48.23588135 19.80252197 48.26399902 20.96759277 48.29296875 22.16796875 C48.3086792 23.35672607 48.32438965 24.5454834 48.34057617 25.77026367 C49.18574268 29.90973338 50.71717425 31.41616987 54 34 C57.54271642 34.75011367 57.54271642 34.75011367 61 34 C63.90717073 31.78136971 64.83981643 30.48055071 66 27 C66.15029988 24.93637009 66.24844448 22.86876085 66.31640625 20.80078125 C66.35451416 19.71192627 66.39262207 18.62307129 66.43188477 17.5012207 C66.47498779 16.11894287 66.51809082 14.73666504 66.5625 13.3125 C66.706875 8.919375 66.85125 4.52625 67 0 C82.51 0 98.02 0 114 0 C114.09174343 6.92408061 114.1714103 13.84605987 114.21972656 20.77026367 C114.23986357 23.12645608 114.26717516 25.48259839 114.30175781 27.83862305 C114.35018287 31.22196806 114.37294796 34.6046534 114.390625 37.98828125 C114.41127014 39.04461258 114.43191528 40.10094391 114.45318604 41.18928528 C114.45363922 42.66047066 114.45363922 42.66047066 114.45410156 44.16137695 C114.46298401 45.02519485 114.47186646 45.88901276 114.48101807 46.77900696 C114 49 114 49 112.24703503 50.61416149 C109.74414124 52.15779857 108.47348952 52.38022351 105.56642151 52.39440918 C104.68466248 52.40575897 103.80290344 52.41710876 102.89442444 52.42880249 C101.93483322 52.42587189 100.975242 52.42294128 99.98657227 52.41992188 C98.96989471 52.42839142 97.95321716 52.43686096 96.9057312 52.44558716 C93.5424959 52.46900049 90.17971691 52.46997827 86.81640625 52.46875 C84.47997351 52.47584881 82.14354252 52.4835474 79.80711365 52.49182129 C74.90871332 52.505276 70.01047419 52.5068303 65.11206055 52.50097656 C58.83250236 52.49507893 52.55371689 52.52567102 46.2743082 52.56609344 C41.44874397 52.59193265 36.62336673 52.59485127 31.79774284 52.59120178 C29.48246251 52.59289649 27.16717386 52.6025725 24.85196114 52.62034607 C21.61505413 52.64246069 18.37972349 52.63287094 15.14282227 52.61523438 C14.18525528 52.62849762 13.22768829 52.64176086 12.24110413 52.65542603 C7.74974194 52.59851444 5.63165892 52.45529151 1.90155029 49.76667786 C-0.10644686 46.84512418 -0.61457815 45.60169868 -0.56762695 42.11791992 C-0.56702271 41.16429565 -0.56641846 40.21067139 -0.5657959 39.22814941 C-0.52742615 37.74429749 -0.52742615 37.74429749 -0.48828125 36.23046875 C-0.48324585 35.3115686 -0.47821045 34.39266846 -0.47302246 33.44592285 C-0.44693869 30.02612943 -0.37713131 26.60678212 -0.3125 23.1875 C-0.209375 15.535625 -0.10625 7.88375 0 0 Z " fill="#CD0B12" transform="translate(71,93)"/>
<path d="M0 0 C96.36 0 192.72 0 292 0 C292 0.33 292 0.66 292 1 C271.97926253 1.17876896 251.95842586 1.34392367 231.9375 1.5 C231.17623291 1.50594854 230.41496581 1.51189708 229.63063002 1.51802588 C176.02423585 1.93597938 122.42045967 2.09028755 68.8125 2.0625 C67.54790585 2.06186365 67.54790585 2.06186365 66.25776434 2.06121445 C44.83849734 2.05025103 23.4192488 2.03004523 2 2 C2 6.29 2 10.58 2 15 C42.59 15 83.18 15 125 15 C126.06782486 18.20347459 126.12058306 20.48187823 126.11352539 23.84838867 C126.11341209 25.64991646 126.11341209 25.64991646 126.11329651 27.48783875 C126.10813522 28.78478165 126.10297394 30.08172455 126.09765625 31.41796875 C126.09579077 32.75889534 126.09436748 34.09982261 126.09336853 35.44075012 C126.08955356 38.96709073 126.07973199 42.49339004 126.06866455 46.01971436 C126.0584285 49.61925691 126.0538114 53.21880635 126.04882812 56.81835938 C126.03863969 63.8789427 126.01906549 70.93941268 126 78 C139.53 78 153.06 78 167 78 C167 58.2 167 38.4 167 18 C167.33 18 167.66 18 168 18 C168 38.13 168 58.26 168 79 C153.48 79 138.96 79 124 79 C124 58.54 124 38.08 124 17 C83.08 17 42.16 17 0 17 C0 11.39 0 5.78 0 0 Z " fill="#B53C41" transform="translate(71,66)"/>
<path d="M0 0 C0.99 0.66 1.98 1.32 3 2 C3.33 1.34 3.66 0.68 4 0 C5.32 0 6.64 0 8 0 C8.0992502 4.03833789 8.17164562 8.07619872 8.21972656 12.11547852 C8.2397799 13.48800023 8.26703028 14.86043717 8.30175781 16.23266602 C8.35054552 18.21072044 8.37088876 20.18941119 8.390625 22.16796875 C8.41157227 23.35672607 8.43251953 24.5454834 8.45410156 25.77026367 C7.91088557 29.6338144 6.68182401 31.22804912 4 34 C0.95751138 36.28186647 -2.20043881 36.41576647 -5.9609375 36.32421875 C-9.33976484 35.78697226 -11.47116508 34.21273056 -14 32 C-14 31.01 -14 30.02 -14 29 C-12.68 29 -11.36 29 -10 29 C-9.54625 29.495 -9.0925 29.99 -8.625 30.5 C-7.00620366 32.30201963 -7.00620366 32.30201963 -4.0625 32.25 C-1.56052492 32.04575714 0.61091345 31.73510355 3 31 C3 28.69 3 26.38 3 24 C2.484375 24.33 1.96875 24.66 1.4375 25 C-1.97498318 26.3999931 -4.33572491 26.4422401 -8 26 C-10.97239241 24.21523759 -13.42604027 22.14791945 -15 19 C-16.03994013 9.07599989 -16.03994013 9.07599989 -13.953125 4.91015625 C-9.91525785 0.05283959 -6.12340656 -0.71540789 0 0 Z " fill="#9D9D9C" transform="translate(482,92)"/>
<path d="M0 0 C1.98 0 3.96 0 6 0 C6 0.99 6 1.98 6 3 C6.495 2.505 6.99 2.01 7.5 1.5 C10.93834648 -0.56300789 14.12582365 -0.48620141 18 0 C19.66666667 0.66666667 21.33333333 1.33333333 23 2 C23.99 1.34 24.98 0.68 26 0 C32.68859615 -0.6472835 32.68859615 -0.6472835 36.73828125 1.3515625 C40.25807031 5.47318078 39.53881433 9.52039801 39.3125 14.75 C39.28994141 15.73355469 39.26738281 16.71710938 39.24414062 17.73046875 C39.18528805 20.1551947 39.10313431 22.57681983 39 25 C37.02 25 35.04 25 33 25 C32.95101562 23.72382813 32.90203125 22.44765625 32.8515625 21.1328125 C32.77653809 19.46351928 32.70099012 17.79424954 32.625 16.125 C32.5940625 15.28324219 32.563125 14.44148437 32.53125 13.57421875 C32.47324219 12.36572266 32.47324219 12.36572266 32.4140625 11.1328125 C32.3826416 10.38918457 32.3512207 9.64555664 32.31884766 8.87939453 C32.14580449 6.75989026 32.14580449 6.75989026 30 5 C26.69316534 5.28983269 26.69316534 5.28983269 24 7 C23.84417697 8.34015221 23.74955858 9.68758903 23.68359375 11.03515625 C23.64169922 11.84404297 23.59980469 12.65292969 23.55664062 13.48632812 C23.51732422 14.33646484 23.47800781 15.18660156 23.4375 16.0625 C23.39431641 16.91650391 23.35113281 17.77050781 23.30664062 18.65039062 C23.20023298 20.76672037 23.09958269 22.88333813 23 25 C20.69 25 18.38 25 16 25 C15.67 18.73 15.34 12.46 15 6 C9.42163702 5.68377223 9.42163702 5.68377223 6 7 C6 12.94 6 18.88 6 25 C4.02 25 2.04 25 0 25 C0 16.75 0 8.5 0 0 Z " fill="#7A7A79" transform="translate(582,142)"/>
<path d="M0 0 C4.133381 2.0666905 6.2880881 3.74708883 8 8 C8.63529958 12.05254261 8.90563196 16.1662824 7.0546875 19.9140625 C4.52263086 23.14681406 2.00304229 25.1811959 -2 26 C-6.52274221 26.05777225 -9.98698768 25.58194325 -13.9375 23.3125 C-17.50813602 19.30905961 -18.22495656 15.68140455 -17.9375 10.4375 C-17.31534391 5.93824926 -15.61603713 3.82227288 -12 1 C-8.28986322 -0.85506839 -4.04907177 -0.45334699 0 0 Z " fill="#767675" transform="translate(816,142)"/>
<path d="M0 0 C3.25900019 1.45614902 5.71264424 3.25517308 8 6 C9.55325716 10.65977149 9.47010978 14.50152507 8 19.1875 C5.28457591 23.00606513 2.48212739 24.70106505 -2 26 C-6.51693641 26.42214359 -9.84715704 25.44666571 -13.4375 22.6875 C-16.96374635 18.98924163 -16.91642333 17.53223903 -17.1875 12.5625 C-16.93621958 7.78817199 -16.125759 5.30165885 -13 1.6875 C-8.67781483 -0.74372916 -4.85396093 -0.67171782 0 0 Z " fill="#737373" transform="translate(568,142)"/>
<path d="M0 0 C1.546875 0.00580078 1.546875 0.00580078 3.125 0.01171875 C5.95604561 0.30790151 7.63499096 0.7632001 10 2.3125 C11.20270964 4.71791929 11.20316663 6.41616591 11.31640625 9.1015625 C11.35830078 10.04257813 11.40019531 10.98359375 11.44335938 11.953125 C11.48267578 12.93796875 11.52199219 13.9228125 11.5625 14.9375 C11.60568359 15.93007812 11.64886719 16.92265625 11.69335938 17.9453125 C11.79961069 20.40089838 11.90164964 22.85658703 12 25.3125 C9.69 25.3125 7.38 25.3125 5 25.3125 C5 24.6525 5 23.9925 5 23.3125 C3.989375 23.828125 2.97875 24.34375 1.9375 24.875 C-2.00064112 26.56049245 -4.81967411 26.43797235 -9 25.3125 C-10.9375 24.1875 -10.9375 24.1875 -12 22.3125 C-12.64858671 16.25902406 -12.64858671 16.25902406 -10.89453125 13.69921875 C-8.196861 11.72463537 -5.56911179 11.3021173 -2.3125 10.625 C-0.54326172 10.24794922 -0.54326172 10.24794922 1.26171875 9.86328125 C2.16535156 9.68152344 3.06898438 9.49976563 4 9.3125 C3.67 7.9925 3.34 6.6725 3 5.3125 C0.69 4.9825 -1.62 4.6525 -4 4.3125 C-4.33 5.3025 -4.66 6.2925 -5 7.3125 C-6.98 7.3125 -8.96 7.3125 -11 7.3125 C-10.64220786 4.71850702 -10.23418099 3.53902087 -8.328125 1.6953125 C-5.3749857 -0.05873332 -3.41552681 -0.05550231 0 0 Z " fill="#767675" transform="translate(740,141.6875)"/>
<path d="M0 0 C3.03208368 1.51330035 5.22783919 3.09517372 7 6 C7.33 8.64 7.66 11.28 8 14 C1.73 14 -4.54 14 -11 14 C-10.34 15.65 -9.68 17.3 -9 19 C-3.71800407 20.19988045 -3.71800407 20.19988045 1 18 C3.6875 17.875 3.6875 17.875 6 18 C5.08438723 21.38776726 4.30527436 22.77662852 1.4375 24.875 C-3.01356611 26.33171254 -6.51309487 26.36593975 -11 25 C-14.31925962 22.38696583 -16.40786646 19.88793324 -18 16 C-18.40326992 11.71260398 -18.08933836 7.687146 -15.71875 4.015625 C-11.16787207 -0.49232012 -6.17736763 -1.46280065 0 0 Z " fill="#858583" transform="translate(510,142)"/>
<path d="M0 0 C2.26152076 1.86242886 3.75305939 3.15053359 5.125 5.75 C5.125 8.06 5.125 10.37 5.125 12.75 C-1.145 12.75 -7.415 12.75 -13.875 12.75 C-13.215 14.4 -12.555 16.05 -11.875 17.75 C-6.59300407 18.94988045 -6.59300407 18.94988045 -1.875 16.75 C1.3125 16.625 1.3125 16.625 4.125 16.75 C2.59312051 19.8988634 1.3327501 21.60505807 -1.5625 23.625 C-5.60656087 24.99845463 -8.85486314 25.08471741 -12.875 23.75 C-15.8299485 21.91831486 -18.29332955 19.9133409 -19.875 16.75 C-20.37687235 12.36220177 -20.88225149 7.76450297 -18.86328125 3.7265625 C-14.11356869 -2.12143194 -6.72130299 -2.92230565 0 0 Z " fill="#737373" transform="translate(470.875,143.25)"/>
<path d="M0 0 C2.70390431 2.38579792 3.84700742 4.51186163 5.125 7.875 C5.125 9.525 5.125 11.175 5.125 12.875 C-1.145 12.875 -7.415 12.875 -13.875 12.875 C-12.53936384 17.81963635 -12.53936384 17.81963635 -9.875 18.875 C-6.875 19.125 -6.875 19.125 -3.875 18.875 C-3.215 18.215 -2.555 17.555 -1.875 16.875 C1.25 16.75 1.25 16.75 4.125 16.875 C2.72027724 20.26974666 1.36107557 22.08664245 -1.875 23.875 C-6.60810916 25.08556461 -10.53025946 25.40943198 -14.875 22.875 C-17.81756138 20.42286552 -19.43656443 18.71131123 -19.875 14.875 C-20.26255786 9.64296883 -19.78563353 6.29113364 -16.875 1.875 C-12.06628639 -2.3679826 -5.75297081 -2.25116249 0 0 Z " fill="#747473" transform="translate(877.875,143.125)"/>
<path d="M0 0 C45.87 0 91.74 0 139 0 C139 5.28 139 10.56 139 16 C97.75 16.33 56.5 16.66 14 17 C14.33 16.01 14.66 15.02 15 14 C55.26 14 95.52 14 137 14 C137 9.71 137 5.42 137 1 C91.79 1 46.58 1 0 1 C0 0.67 0 0.34 0 0 Z " fill="#AC2124" transform="translate(224,67)"/>
<path d="M0 0 C1.98 0 3.96 0 6 0 C6 0.99 6 1.98 6 3 C6.66 2.505 7.32 2.01 8 1.5 C11.65620281 -0.3281014 14.99909205 -1.15177653 19 0 C21.73046875 1.88671875 21.73046875 1.88671875 24 5 C24.60109617 8.46092395 24.47324026 11.81330809 24.3125 15.3125 C24.28994141 16.24384766 24.26738281 17.17519531 24.24414062 18.13476562 C24.18542078 20.4248396 24.10336858 22.71157875 24 25 C21.69 25 19.38 25 17 25 C16.93941406 23.71222656 16.87882813 22.42445313 16.81640625 21.09765625 C16.73201753 19.41925841 16.6473687 17.74087364 16.5625 16.0625 C16.52318359 15.21236328 16.48386719 14.36222656 16.44335938 13.48632812 C16.40146484 12.67744141 16.35957031 11.86855469 16.31640625 11.03515625 C16.27974854 10.2862915 16.24309082 9.53742676 16.20532227 8.76586914 C16.18228937 6.97538674 16.18228937 6.97538674 15 6 C12 5.83333333 12 5.83333333 9 6 C7.48578999 7.51421001 7.78690144 8.92472768 7.68359375 11.03515625 C7.64169922 11.84404297 7.59980469 12.65292969 7.55664062 13.48632812 C7.51732422 14.33646484 7.47800781 15.18660156 7.4375 16.0625 C7.39431641 16.91650391 7.35113281 17.77050781 7.30664062 18.65039062 C7.20023298 20.76672037 7.09958269 22.88333813 7 25 C4.69 25 2.38 25 0 25 C0 16.75 0 8.5 0 0 Z " fill="#797977" transform="translate(829,142)"/>
<path d="M0 0 C1.98 0 3.96 0 6 0 C6 0.99 6 1.98 6 3 C6.66 2.505 7.32 2.01 8 1.5 C12.08909662 -0.54454831 14.44331263 -0.43397023 19 0 C22.23613354 1.74253345 22.82395315 2.47185944 24 6 C24.0806622 7.48123547 24.10761193 8.96582204 24.09765625 10.44921875 C24.09443359 11.29677734 24.09121094 12.14433594 24.08789062 13.01757812 C24.07951172 13.89865234 24.07113281 14.77972656 24.0625 15.6875 C24.05798828 16.58017578 24.05347656 17.47285156 24.04882812 18.39257812 C24.03704983 20.59511987 24.02060164 22.79752599 24 25 C21.69 25 19.38 25 17 25 C16.93941406 23.71222656 16.87882813 22.42445313 16.81640625 21.09765625 C16.73201753 19.41925841 16.6473687 17.74087364 16.5625 16.0625 C16.52318359 15.21236328 16.48386719 14.36222656 16.44335938 13.48632812 C16.40146484 12.67744141 16.35957031 11.86855469 16.31640625 11.03515625 C16.27974854 10.2862915 16.24309082 9.53742676 16.20532227 8.76586914 C16.18228937 6.97538674 16.18228937 6.97538674 15 6 C12 5.83333333 12 5.83333333 9 6 C7.48578999 7.51421001 7.78690144 8.92472768 7.68359375 11.03515625 C7.64169922 11.84404297 7.59980469 12.65292969 7.55664062 13.48632812 C7.51732422 14.33646484 7.47800781 15.18660156 7.4375 16.0625 C7.39431641 16.91650391 7.35113281 17.77050781 7.30664062 18.65039062 C7.20023298 20.76672037 7.09958269 22.88333813 7 25 C4.69 25 2.38 25 0 25 C0 16.75 0 8.5 0 0 Z " fill="#717170" transform="translate(657,142)"/>
<path d="M0 0 C0.74121094 -0.03996094 1.48242188 -0.07992187 2.24609375 -0.12109375 C5.95779774 0.77397146 7.32635278 2.38038964 9.5625 5.4375 C10.15194502 8.57063539 10.03781588 11.57634278 9.875 14.75 C9.85244141 15.58595703 9.82988281 16.42191406 9.80664062 17.28320312 C9.7480061 19.33541149 9.65833215 21.38669202 9.5625 23.4375 C10.2225 23.4375 10.8825 23.4375 11.5625 23.4375 C11.5625 24.4275 11.5625 25.4175 11.5625 26.4375 C9.9125 26.4375 8.2625 26.4375 6.5625 26.4375 C6.5625 25.4475 6.5625 24.4575 6.5625 23.4375 C5.7375 23.9325 4.9125 24.4275 4.0625 24.9375 C-0.33908735 26.82389458 -2.68506711 26.974065 -7.4375 26.4375 C-9.9375 24.875 -9.9375 24.875 -11.4375 22.4375 C-11.9375 18.875 -11.9375 18.875 -11.4375 15.4375 C-8.2691573 12.20763608 -5.06736102 11.81938193 -0.6875 11.25 C0.48296875 11.09144531 1.6534375 10.93289062 2.859375 10.76953125 C3.75140625 10.65996094 4.6434375 10.55039063 5.5625 10.4375 C5.21805119 7.96483235 5.21805119 7.96483235 4.5625 5.4375 C1.4792365 3.89586825 -1.04628099 4.14002465 -4.4375 4.4375 C-6.21159808 6.35772703 -6.21159808 6.35772703 -7.4375 8.4375 C-8.4275 8.4375 -9.4175 8.4375 -10.4375 8.4375 C-8.96082841 2.77692559 -8.96082841 2.77692559 -6.63671875 1.26953125 C-4.30560583 0.38760043 -2.48695468 0.0732725 0 0 Z " fill="#7B7B7B" transform="translate(628.4375,91.5625)"/>
<path d="M0 0 C12.82142857 0 12.82142857 0 17 3 C19.42297351 5.97364931 19.35895518 9.27440457 19.25390625 13.03515625 C18.87642532 15.95627792 17.85858628 17.74314524 16 20 C11.14202434 23.17976589 5.5840909 22.12139328 0 22 C0 14.74 0 7.48 0 0 Z " fill="#A3A3A3" transform="translate(301,160)"/>
<path d="M0 0 C2.31 0 4.62 0 7 0 C7.06058594 1.27617187 7.12117187 2.55234375 7.18359375 3.8671875 C7.26799568 5.53647016 7.35264386 7.20574037 7.4375 8.875 C7.47681641 9.71675781 7.51613281 10.55851563 7.55664062 11.42578125 C7.59853516 12.23144531 7.64042969 13.03710938 7.68359375 13.8671875 C7.72025146 14.61081543 7.75690918 15.35444336 7.79467773 16.12060547 C7.89955865 18.08864312 7.89955865 18.08864312 9 20 C11.93443402 19.73343428 11.93443402 19.73343428 15 19 C17.48044315 15.27933528 17.44381173 12.13459526 17.625 7.8125 C17.66367187 7.06291016 17.70234375 6.31332031 17.7421875 5.54101562 C17.83628216 3.69440801 17.91922319 1.8472381 18 0 C19.98 0 21.96 0 24 0 C24 8.25 24 16.5 24 25 C22.02 25 20.04 25 18 25 C18 24.01 18 23.02 18 22 C16.989375 22.680625 15.97875 23.36125 14.9375 24.0625 C11.93755146 25.77502123 10.95173531 25.99918195 7.3125 25.9375 C4.0267886 25.00758168 2.42151898 24.34572453 0 22 C-0.45410156 19.63989258 -0.45410156 19.63989258 -0.390625 16.89453125 C-0.37128906 15.42016602 -0.37128906 15.42016602 -0.3515625 13.91601562 C-0.31804688 12.89185547 -0.28453125 11.86769531 -0.25 10.8125 C-0.23195313 9.77673828 -0.21390625 8.74097656 -0.1953125 7.67382812 C-0.14814437 5.11495716 -0.08234057 2.55794158 0 0 Z " fill="#777776" transform="translate(627,142)"/>
<path d="M0 0 C2.8100346 1.79363911 4.50940468 3.01880935 6 6 C6.53118252 10.91996928 6.75105553 14.77327597 4.125 19.0625 C0.83323915 22.06381136 -1.49764865 22.3335441 -5.9609375 22.29296875 C-9.13134567 21.83745033 -10.8192402 20.24684343 -13 18 C-14.84862688 14.30274625 -14.47587094 10.03538558 -14 6 C-10.44272712 0.18978764 -6.66427238 -0.9575104 0 0 Z " fill="#F9F9F9" transform="translate(337,160)"/>
<path d="M0 0 C9.24 0 18.48 0 28 0 C28 1.98 28 3.96 28 6 C24.7 6 21.4 6 18 6 C18 15.57 18 25.14 18 35 C15.69 35 13.38 35 11 35 C11 25.43 11 15.86 11 6 C7.37 6 3.74 6 0 6 C0 4.02 0 2.04 0 0 Z " fill="#7D7D7B" transform="translate(425,132)"/>
<path d="M0 0 C3.11141288 1.6437653 5.28893717 3.03036886 7.375 5.875 C8 8 8 8 8 14 C1.73 14 -4.54 14 -11 14 C-11 15.98 -11 17.96 -11 20 C-7.35918336 22.33012265 -4.25058287 22.46369995 0 22 C1.70532323 20.05990478 1.70532323 20.05990478 3 18 C4.32 18 5.64 18 7 18 C6.69025617 20.89094238 5.95829554 22.04691751 4 24.25 C-0.07190698 26.62527907 -3.39040748 26.96404483 -8 26 C-11.06583403 24.27267979 -13.40227558 22.19544885 -15 19 C-15.93138235 8.66318277 -15.93138235 8.66318277 -13.25 3.875 C-8.82359904 0.18633253 -5.86942273 -0.60718166 0 0 Z " fill="#979796" transform="translate(511,92)"/>
<path d="M0 0 C2.6143554 2.10600852 3.89205568 3.73925758 5.25 6.8125 C5.25 8.7925 5.25 10.7725 5.25 12.8125 C-1.02 12.8125 -7.29 12.8125 -13.75 12.8125 C-12.76 15.1225 -11.77 17.4325 -10.75 19.8125 C-6.81742675 20.93609236 -4.63155977 21.10635326 -0.75 19.8125 C-0.42 18.8225 -0.09 17.8325 0.25 16.8125 C1.57 16.8125 2.89 16.8125 4.25 16.8125 C3.94025617 19.70344238 3.20829554 20.85941751 1.25 23.0625 C-2.83467849 25.44522912 -6.12754148 25.75486413 -10.75 24.8125 C-14.04169539 23.14270026 -16.25867176 21.07591547 -17.625 17.5625 C-17.66625 16.655 -17.7075 15.7475 -17.75 14.8125 C-17.84087891 13.75289062 -17.84087891 13.75289062 -17.93359375 12.671875 C-18.15431106 8.63207936 -18.1111271 6.41867764 -16 2.875 C-11.15894642 -1.56263245 -6.28391102 -2.71350703 0 0 Z " fill="#909090" transform="translate(579.75,93.1875)"/>
<path d="M0 0 C2.0625 -0.061875 4.125 -0.12375 6.25 -0.1875 C7.99023438 -0.23970703 7.99023438 -0.23970703 9.765625 -0.29296875 C13.22268407 0.02017066 14.51565563 0.65709108 17 3 C16.67 4.98 16.34 6.96 16 9 C15.34 9 14.68 9 14 9 C14 9.66 14 10.32 14 11 C15.32 11.66 16.64 12.32 18 13 C17.75 16.375 17.75 16.375 17 20 C13.66022013 22.5048349 10.29440979 22.2058882 6.25 22.125 C3.15625 22.063125 3.15625 22.063125 0 22 C0 14.74 0 7.48 0 0 Z " fill="#8F8F8F" transform="translate(78,160)"/>
<path d="M0 0 C4.14623807 1.79042098 6.17613802 3.87231236 8 8 C8 9.98 8 11.96 8 14 C1.73 14 -4.54 14 -11 14 C-8.98848737 20.77489892 -8.98848737 20.77489892 -6 22 C-3.0842309 22.41702122 -3.0842309 22.41702122 0 22 C1.35308313 20.68671343 2.68870078 19.35500919 4 18 C6.25 18.25 6.25 18.25 8 19 C6.67770588 21.51235884 5.57298801 23.55434266 3.3125 25.3125 C-0.18234933 26.35150926 -3.43222588 26.69164143 -7 26 C-10.02089981 24.2524257 -12.41608883 22.16782234 -14 19 C-15.03994013 9.07599989 -15.03994013 9.07599989 -12.953125 4.91015625 C-8.96552195 0.11330435 -6.07380871 -0.41178364 0 0 Z " fill="#818181" transform="translate(672,92)"/>
<path d="M0 0 C2.5502469 1.4279275 3.33643528 2.50465292 5 5 C5 5.66 5 6.32 5 7 C3.02 7 1.04 7 -1 7 C-1.33 6.34 -1.66 5.68 -2 5 C-3.89533342 4.53476937 -3.89533342 4.53476937 -6.0625 4.375 C-7.361875 4.25125 -8.66125 4.1275 -10 4 C-9.95799986 5.96372295 -9.95799986 5.96372295 -9 8 C-6.32756042 9.26111927 -6.32756042 9.26111927 -3.125 10.0625 C3.93282313 12.04379252 3.93282313 12.04379252 6 15 C6 18.5 6 18.5 5 22 C1.16545757 25.59488353 -3.91283497 26.00924939 -9 26 C-12.44222409 25.1020285 -14.8771781 23.90491418 -17 21 C-17 19.68 -17 18.36 -17 17 C-15.02 17 -13.04 17 -11 17 C-10.67 17.99 -10.34 18.98 -10 20 C-5.89776415 21.01540112 -5.89776415 21.01540112 -2 20 C-2 18.68 -2 17.36 -2 16 C-2.74765625 15.81824219 -3.4953125 15.63648438 -4.265625 15.44921875 C-5.25046875 15.19785156 -6.2353125 14.94648438 -7.25 14.6875 C-8.22453125 14.44386719 -9.1990625 14.20023438 -10.203125 13.94921875 C-13.03521152 12.98804972 -14.82922589 12.04427213 -17 10 C-17.5625 7.0625 -17.5625 7.0625 -17 4 C-12.95274989 -1.49269658 -6.19546346 -1.01831513 0 0 Z " fill="#787878" transform="translate(904,142)"/>
<path d="M0 0 C15.51 0 31.02 0 47 0 C47 17.16 47 34.32 47 52 C39.3275 52.103125 31.655 52.20625 23.75 52.3125 C21.33268555 52.35802002 18.91537109 52.40354004 16.42480469 52.45043945 C14.50717558 52.46504349 12.58953099 52.47778436 10.671875 52.48828125 C9.18034912 52.526651 9.18034912 52.526651 7.65869141 52.5657959 C0.60102268 52.57026731 0.60102268 52.57026731 -2.66699219 49.46948242 C-3.10688477 48.65455322 -3.54677734 47.83962402 -4 47 C-2.68 47.33 -1.36 47.66 0 48 C0 48.66 0 49.32 0 50 C14.85 50 29.7 50 45 50 C45 34.16 45 18.32 45 2 C30.81 2 16.62 2 2 2 C2.33 7.61 2.66 13.22 3 19 C2.01 19 1.02 19 0 19 C0 12.73 0 6.46 0 0 Z " fill="#AA282B" transform="translate(316,93)"/>
<path d="M0 0 C3.125 1.1875 3.125 1.1875 5 3 C5.8125 5.6875 5.8125 5.6875 6 8 C3.1875 8.1875 3.1875 8.1875 0 8 C-1.02019573 7.0206121 -2.02149805 6.02104551 -3 5 C-5.5 4.5 -5.5 4.5 -8 5 C-10.12507645 6.61668496 -10.90844456 7.50452352 -11.3984375 10.15625 C-11.39070312 10.9296875 -11.38296875 11.703125 -11.375 12.5 C-11.38273438 13.2734375 -11.39046875 14.046875 -11.3984375 14.84375 C-10.90346131 17.52244468 -10.1965075 18.41670512 -8 20 C-4.37464024 20.2503577 -4.37464024 20.2503577 -1 20 C-0.67 18.68 -0.34 17.36 0 16 C2.31 16 4.62 16 7 16 C5.64530893 20.43353442 3.97128752 22.58269455 0 25 C-4.22979354 26.2820199 -7.18686921 26.28610157 -11.375 24.8125 C-14.00202083 22.99860466 -14.97467587 21.97343996 -16 19 C-16.66 19 -17.32 19 -18 19 C-18.62693289 8.08091878 -18.62693289 8.08091878 -16.1875 3.875 C-10.8787355 -0.67536957 -6.76583916 -0.63306097 0 0 Z " fill="#787877" transform="translate(540,142)"/>
<path d="M0 0 C2.35479253 2.20287043 2.68060052 3.64407307 2.9375 6.8125 C0.125 7 0.125 7 -3.0625 6.8125 C-4.08269573 5.8331121 -5.08399805 4.83354551 -6.0625 3.8125 C-8.60508463 3.31235047 -8.60508463 3.31235047 -11.0625 3.8125 C-13.41369399 7.33929099 -13.27693452 8.84129485 -13.1875 13 C-13.16042969 14.63001953 -13.16042969 14.63001953 -13.1328125 16.29296875 C-13.10960937 17.12441406 -13.08640625 17.95585937 -13.0625 18.8125 C-10.0925 18.8125 -7.1225 18.8125 -4.0625 18.8125 C-3.7325 17.4925 -3.4025 16.1725 -3.0625 14.8125 C-1.0825 14.8125 0.8975 14.8125 2.9375 14.8125 C2.66092508 18.13139905 2.15383092 19.57650263 -0.125 22.0625 C-4.62212173 24.74163635 -8.7055672 25.34816655 -13.8125 24.1875 C-17.36315032 22.01765813 -19.5072854 19.82562505 -20.63671875 15.73046875 C-21.5133435 10.19736416 -20.94801746 6.62169577 -18.0625 1.8125 C-13.22906842 -2.72799633 -5.87150572 -2.2767063 0 0 Z " fill="#757574" transform="translate(720.0625,143.1875)"/>
<path d="M0 0 C3.58975819 1.42094595 4.62176495 2.22551871 6.3125 5.6875 C6.6528125 6.8321875 6.6528125 6.8321875 7 8 C4.1875 8.1875 4.1875 8.1875 1 8 C-0.02019573 7.0206121 -1.02149805 6.02104551 -2 5 C-4.5 4.41666667 -4.5 4.41666667 -7 5 C-8.98009206 6.49901018 -8.98009206 6.49901018 -10 9 C-10.28926333 13.04968665 -9.9883607 16.04655721 -9 20 C-6.03 20 -3.06 20 0 20 C0.33 18.68 0.66 17.36 1 16 C2.98 16 4.96 16 7 16 C6.72342508 19.31889905 6.21633092 20.76400263 3.9375 23.25 C-0.53402042 25.91388451 -4.59582657 26.50319909 -9.6875 25.4375 C-12.91004169 23.43429841 -15.31142796 21.39799065 -17 18 C-17.79482357 13.35733895 -17.59726774 9.4035792 -15.75 5.0625 C-11.06941802 -0.45390019 -6.95802587 -0.82323483 0 0 Z " fill="#747473" transform="translate(774,142)"/>
<path d="M0 0 C12.64336283 -0.41681416 12.64336283 -0.41681416 17 3 C17.5 6 17.5 6 17 9 C15.5 10.875 15.5 10.875 14 12 C14.99 12.66 15.98 13.32 17 14 C17.40843923 16.71203652 17.13336867 19.2437142 17 22 C15.68 21.67 14.36 21.34 13 21 C12.855625 19.865625 12.71125 18.73125 12.5625 17.5625 C12.38828522 14.19222799 12.38828522 14.19222799 11 13 C9.65252916 12.76924918 8.29622435 12.58846937 6.9375 12.4375 C5.638125 12.293125 4.33875 12.14875 3 12 C3 15.3 3 18.6 3 22 C2.01 22 1.02 22 0 22 C0 14.74 0 7.48 0 0 Z " fill="#A3A3A3" transform="translate(348,160)"/>
<path d="M0 0 C11.93023256 -0.602537 11.93023256 -0.602537 14.9765625 1.11328125 C16.3125 2.5 16.3125 2.5 18 5 C17.67 5.763125 17.34 6.52625 17 7.3125 C15.24941736 12.01719084 16.63951548 15.32333446 18 20 C18 20.66 18 21.32 18 22 C16.68 21.67 15.36 21.34 14 21 C13.67 18.69 13.34 16.38 13 14 C9.7 13.34 6.4 12.68 3 12 C3 15.3 3 18.6 3 22 C2.01 22 1.02 22 0 22 C0 14.74 0 7.48 0 0 Z " fill="#9E9E9E" transform="translate(143,160)"/>
<path d="M0 0 C15.84 0 31.68 0 48 0 C48.375 14.25 48.375 14.25 48.47802734 18.72753906 C48.5136377 19.89510742 48.54924805 21.06267578 48.5859375 22.265625 C48.6173584 23.45961914 48.6487793 24.65361328 48.68115234 25.88378906 C48.9803287 28.80774539 49.47461838 30.52727611 51 33 C50.01 33 49.02 33 48 33 C48 32.34 48 31.68 48 31 C47.34 31 46.68 31 46 31 C45.67 21.76 45.34 12.52 45 3 C30.81 2.67 16.62 2.34 2 2 C2.33 17.18 2.66 32.36 3 48 C2.01 48.495 2.01 48.495 1 49 C-0.19791173 46.60417654 -0.1206744 45.13222462 -0.11352539 42.45849609 C-0.11340454 41.50450928 -0.11328369 40.55052246 -0.11315918 39.56762695 C-0.10804321 38.56304443 -0.10292725 37.55846191 -0.09765625 36.5234375 C-0.09664917 35.60151611 -0.09564209 34.67959473 -0.09460449 33.72973633 C-0.08936322 30.27814494 -0.075402 26.82657125 -0.0625 23.375 C-0.041875 15.66125 -0.02125 7.9475 0 0 Z " fill="#A81F24" transform="translate(71,93)"/>
<path d="M0 0 C13.46015143 -0.37046288 13.46015143 -0.37046288 15.9296875 1.32421875 C17.58647842 3.91824541 17.31241021 6.00086201 17 9 C16.01 10.485 16.01 10.485 15 12 C15.66 12.66 16.32 13.32 17 14 C17.56520003 16.65537372 17.73788198 19.29144713 18 22 C16.68 21.67 15.36 21.34 14 21 C13.814375 19.2984375 13.814375 19.2984375 13.625 17.5625 C13.41875 16.386875 13.2125 15.21125 13 14 C10.04335481 12.5216774 7.25770263 12.93967217 4 13 C3.67 15.97 3.34 18.94 3 22 C2.01 22 1.02 22 0 22 C0 14.74 0 7.48 0 0 Z " fill="#919191" transform="translate(121,160)"/>
<path d="M0 0 C3.5 0.875 3.5 0.875 5.4375 2.4375 C6.96064771 5.93178004 7.04152247 9.16272099 6.5 12.875 C4.25 18.5 4.25 18.5 1.5 19.875 C-1.375 20.25 -1.375 20.25 -4.5 19.875 C-7.62949798 17.15727807 -8.42449642 15.56711619 -8.875 11.4375 C-8.50388277 7.91188629 -7.93190296 5.11562249 -6.5 1.875 C-3.5 -0.125 -3.5 -0.125 0 0 Z " fill="#FAFAFA" transform="translate(479.5,95.125)"/>
<path d="M0 0 C3.39331583 0.8740359 4.76446213 1.82581471 7.0625 4.53125 C7.68765133 8.29599899 7.53184278 11.97841577 7.375 15.78125 C7.35244141 16.8125 7.32988281 17.84375 7.30664062 18.90625 C7.24777163 21.44939065 7.16560065 23.98958113 7.0625 26.53125 C5.7425 26.53125 4.4225 26.53125 3.0625 26.53125 C2.7325 19.27125 2.4025 12.01125 2.0625 4.53125 C-5.4902864 3.93496521 -5.4902864 3.93496521 -9.9375 6.53125 C-9.9375 13.13125 -9.9375 19.73125 -9.9375 26.53125 C-11.2575 26.53125 -12.5775 26.53125 -13.9375 26.53125 C-13.9375 18.28125 -13.9375 10.03125 -13.9375 1.53125 C-12.9475 1.53125 -11.9575 1.53125 -10.9375 1.53125 C-10.9375 2.52125 -10.9375 3.51125 -10.9375 4.53125 C-10.2775 3.87125 -9.6175 3.21125 -8.9375 2.53125 C-5.58289198 0.29484465 -3.89107417 0.06275926 0 0 Z " fill="#929292" transform="translate(537.9375,91.46875)"/>
<path d="M0 0 C1.32 0.33 2.64 0.66 4 1 C4 1.66 4 2.32 4 3 C4.680625 2.505 5.36125 2.01 6.0625 1.5 C9.70247525 -0.35871077 11.95462873 -0.43343264 16 0 C18.68823242 1.19067383 18.68823242 1.19067383 21 3 C21.56762695 5.4519043 21.56762695 5.4519043 21.48828125 8.32421875 C21.47216797 9.35224609 21.45605469 10.38027344 21.43945312 11.43945312 C21.39755859 12.51130859 21.35566406 13.58316406 21.3125 14.6875 C21.28994141 15.77095703 21.26738281 16.85441406 21.24414062 17.97070312 C21.1851579 20.64851905 21.10290307 23.32357027 21 26 C20.01 26 19.02 26 18 26 C17.98018066 25.40461426 17.96036133 24.80922852 17.93994141 24.19580078 C17.84483874 21.50507847 17.73510158 18.81514852 17.625 16.125 C17.5940625 15.18785156 17.563125 14.25070313 17.53125 13.28515625 C17.49257813 12.38925781 17.45390625 11.49335937 17.4140625 10.5703125 C17.3826416 9.74289551 17.3512207 8.91547852 17.31884766 8.06298828 C17.17400863 5.78013915 17.17400863 5.78013915 15 4 C10.43758521 3.59445202 8.4326295 4.2269482 4 6 C4 12.6 4 19.2 4 26 C2.68 26 1.36 26 0 26 C0 17.42 0 8.84 0 0 Z " fill="#959595" transform="translate(440,92)"/>
<path d="M0 0 C1.32 0 2.64 0 4 0 C4.33 0.99 4.66 1.98 5 3 C5.495 2.505 5.99 2.01 6.5 1.5 C9.87783744 -0.52670246 13.15106474 -0.95471636 17 0 C19.234375 1.32421875 19.234375 1.32421875 21 4 C21.49462655 7.76077469 21.374874 11.46535724 21.25 15.25 C21.23195313 16.28125 21.21390625 17.3125 21.1953125 18.375 C21.14822712 20.91761064 21.0824805 23.45833162 21 26 C20.01 26 19.02 26 18 26 C18 19.07 18 12.14 18 5 C9.99398337 3.47731059 9.99398337 3.47731059 6.484375 4.83203125 C4.00279443 8.45644497 4.31905422 12.3967218 4.25 16.6875 C4.22035156 17.58017578 4.19070313 18.47285156 4.16015625 19.39257812 C4.08948573 21.59514277 4.03678061 23.79665131 4 26 C2.68 26 1.36 26 0 26 C0 17.42 0 8.84 0 0 Z " fill="#707070" transform="translate(685,92)"/>
<path d="M0 0 C1.98 0 3.96 0 6 0 C6 11.55 6 23.1 6 35 C4.02 35 2.04 35 0 35 C0 23.45 0 11.9 0 0 Z " fill="#7C7C7B" transform="translate(481,132)"/>
<path d="M0 0 C2.26152076 1.86242886 3.75305939 3.15053359 5.125 5.75 C5.3125 9.5 5.3125 9.5 5.125 12.75 C4.795 12.75 4.465 12.75 4.125 12.75 C3.465 10.44 2.805 8.13 2.125 5.75 C1.59390625 6.40484375 1.0628125 7.0596875 0.515625 7.734375 C-2.55790067 10.325779 -4.16789587 10.17204801 -8.125 10 C-9.20265625 9.96390625 -10.2803125 9.9278125 -11.390625 9.890625 C-12.62039063 9.82101563 -12.62039063 9.82101563 -13.875 9.75 C-13.875 8.1 -13.875 6.45 -13.875 4.75 C-14.205 5.41 -14.535 6.07 -14.875 6.75 C-16.195 6.75 -17.515 6.75 -18.875 6.75 C-18.875 10.05 -18.875 13.35 -18.875 16.75 C-19.205 16.75 -19.535 16.75 -19.875 16.75 C-20.73566857 6.00120591 -20.73566857 6.00120591 -17.5625 2.125 C-12.6286253 -2.23516834 -5.96833008 -2.59492612 0 0 Z " fill="#A1A1A1" transform="translate(470.875,143.25)"/>
<path d="M0 0 C1.8125 1 1.8125 1 3 3 C3.97304932 7.30921841 4.41959673 9.76743461 3 13.9375 C1 16 1 16 -2.4375 17 C-6 17 -6 17 -8.19140625 15.80859375 C-10 14 -10 14 -10.53125 11.66015625 C-10.44779993 4.72336912 -10.44779993 4.72336912 -8.375 1.375 C-5.31163508 -0.39852706 -3.48634568 -0.51924297 0 0 Z " fill="#F2F2F2" transform="translate(567,146)"/>
<path d="M0 0 C1.32 0 2.64 0 4 0 C5.33891561 3.28942366 6.67017703 6.58189109 8 9.875 C8.3815625 10.81214844 8.763125 11.74929687 9.15625 12.71484375 C9.5171875 13.61074219 9.878125 14.50664062 10.25 15.4296875 C10.75273437 16.67081299 10.75273437 16.67081299 11.265625 17.93701172 C12 20 12 20 12 22 C10.68 22 9.36 22 8 22 C7.67 20.02 7.34 18.04 7 16 C3.7 16 0.4 16 -3 16 C-3.66 17.98 -4.32 19.96 -5 22 C-5.99 22 -6.98 22 -8 22 C-5.92957946 14.39162534 -3.14169523 7.2271408 0 0 Z " fill="#979797" transform="translate(286,160)"/>
<path d="M0 0 C1.94238281 0.20776367 1.94238281 0.20776367 4 1 C5.09667969 2.6105957 5.09667969 2.6105957 5.921875 4.67578125 C6.22480469 5.42150391 6.52773437 6.16722656 6.83984375 6.93554688 C7.14019531 7.71994141 7.44054687 8.50433594 7.75 9.3125 C8.06582031 10.08529297 8.38164062 10.85808594 8.70703125 11.65429688 C10.21457488 15.4492606 11 17.82141485 11 22 C10.01 21.67 9.02 21.34 8 21 C7.67 19.35 7.34 17.7 7 16 C2.05 16.495 2.05 16.495 -3 17 C-3.99 19.475 -3.99 19.475 -5 22 C-5.99 22 -6.98 22 -8 22 C-7.37910554 17.00956079 -5.90498961 12.79272252 -4 8.1875 C-3.72671875 7.50751953 -3.4534375 6.82753906 -3.171875 6.12695312 C-1.14553571 1.14553571 -1.14553571 1.14553571 0 0 Z " fill="#949494" transform="translate(171,160)"/>
<path d="M0 0 C1.94238281 0.19189453 1.94238281 0.19189453 4 1 C5.09667969 2.71826172 5.09667969 2.71826172 5.921875 4.9296875 C6.22480469 5.72503906 6.52773437 6.52039063 6.83984375 7.33984375 C7.14019531 8.17644531 7.44054687 9.01304687 7.75 9.875 C8.06582031 10.70386719 8.38164063 11.53273437 8.70703125 12.38671875 C11 18.5310809 11 18.5310809 11 22 C10.01 22 9.02 22 8 22 C7.67 20.02 7.34 18.04 7 16 C2.05 16.495 2.05 16.495 -3 17 C-3.99 19.475 -3.99 19.475 -5 22 C-5.99 22 -6.98 22 -8 22 C-4.15 4.15 -4.15 4.15 0 0 Z " fill="#8E8E8D" transform="translate(106,160)"/>
<path d="M0 0 C0.66 1.32 1.32 2.64 2 4 C1.01 4.66 0.02 5.32 -1 6 C-0.67 6.99 -0.34 7.98 0 9 C0.48223711 11.08294013 0.94705041 13.16881953 1.40234375 15.2578125 C1.84636242 17.21522908 1.84636242 17.21522908 4 18 C7 18.25 7 18.25 10 18 C10.66 17.34 11.32 16.68 12 16 C15.125 15.875 15.125 15.875 18 16 C16.59527724 19.39474666 15.23607557 21.21164245 12 23 C7.26689084 24.21056461 3.34474054 24.53443198 -1 22 C-3.94256138 19.54786552 -5.56156443 17.83631123 -6 14 C-6.24920361 9.43126709 -6.00497739 6.13526586 -4 2 C-2.68 2 -1.36 2 0 2 C0 1.34 0 0.68 0 0 Z " fill="#70706F" transform="translate(864,144)"/>
<path d="M0 0 C6.38052027 0.36116152 6.38052027 0.36116152 9 3.0625 C10.41959673 7.23256539 9.97304932 9.69078159 9 14 C7.8125 16 7.8125 16 6 17 C0.87714482 17.6403569 0.87714482 17.6403569 -1.6640625 15.78515625 C-3.41909271 13.4399843 -3.40122374 11.96896459 -3.375 9.0625 C-3.38273438 8.20785156 -3.39046875 7.35320312 -3.3984375 6.47265625 C-2.9319174 3.5774874 -1.91238222 2.18052047 0 0 Z " fill="#F9F9F8" transform="translate(808,146)"/>
<path d="M0 0 C7 0 7 0 9.41015625 1.15625 C11.57104878 3.66224821 11.50350702 5.22605194 11.4375 8.5 C11.43621094 9.4590625 11.43492187 10.418125 11.43359375 11.40625 C11 14 11 14 9.97265625 15.78125 C8 17 8 17 0 18 C0 12.06 0 6.12 0 0 Z " fill="#F8F8F8" transform="translate(305,162)"/>
<path d="M0 0 C2.31 0 4.62 0 7 0 C7 8.25 7 16.5 7 25 C4.69 25 2.38 25 0 25 C0 16.75 0 8.5 0 0 Z " fill="#858584" transform="translate(687,142)"/>
<path d="M0 0 C4.95 0 9.9 0 15 0 C15 0.99 15 1.98 15 3 C11.04 3 7.08 3 3 3 C3 4.98 3 6.96 3 9 C6.63 9 10.26 9 14 9 C14 9.99 14 10.98 14 12 C10.37 12 6.74 12 3 12 C3 14.31 3 16.62 3 19 C6.96 19 10.92 19 15 19 C15 19.99 15 20.98 15 22 C10.05 22 5.1 22 0 22 C0 14.74 0 7.48 0 0 Z " fill="#959595" transform="translate(216,160)"/>
<path d="M0 0 C3.00003066 1.49736044 5.28370844 3.09594375 7 6 C7 8.31 7 10.62 7 13 C1.06 13 -4.88 13 -11 13 C-11 12.34 -11 11.68 -11 11 C-7.04 11 -3.08 11 1 11 C0.34 9.35 -0.32 7.7 -1 6 C-3.91004903 4.91776634 -3.91004903 4.91776634 -7 5 C-10.16666667 6.83333333 -10.16666667 6.83333333 -12 10 C-13.32 9.67 -14.64 9.34 -16 9 C-13.66689628 0.25086103 -8.58102122 -1.60319233 0 0 Z " fill="#797978" transform="translate(510,142)"/>
<path d="M0 0 C2.8100346 1.79363911 4.50940468 3.01880935 6 6 C6.53118252 10.91996928 6.75105553 14.77327597 4.125 19.0625 C0.83323915 22.06381136 -1.49764865 22.3335441 -5.9609375 22.29296875 C-9.13134567 21.83745033 -10.8192402 20.24684343 -13 18 C-14.84862688 14.30274625 -14.47587094 10.03538558 -14 6 C-10.44272712 0.18978764 -6.66427238 -0.9575104 0 0 Z M-9.3125 3.375 C-11.91329078 7.42067454 -11.76069024 11.32718852 -11 16 C-9.57955419 18.75609295 -9.57955419 18.75609295 -7 20 C-3.73129539 20.4669578 -1.90418241 20.65475278 0.8125 18.6875 C3.14456664 15.37351056 3.39898001 11.92266361 3.34765625 7.94140625 C3.11886747 5.7023989 3.11886747 5.7023989 0.8125 3.5 C-3.21733504 1.35075465 -5.33945935 1.01265151 -9.3125 3.375 Z " fill="#939393" transform="translate(337,160)"/>
<path d="M0 0 C0.36120401 5.4180602 0.36120401 5.4180602 -1.125 7.8125 C-5.81932881 10.78557491 -11.65897017 10 -17 10 C-17.36770893 3.50380898 -17.36770893 3.50380898 -15.796875 1.3515625 C-13.57465017 -0.31993705 -11.78445652 -0.77629503 -9.0625 -1.3125 C-8.20785156 -1.49425781 -7.35320313 -1.67601562 -6.47265625 -1.86328125 C-3.67308501 -2.01807587 -2.35376924 -1.45813547 0 0 Z " fill="#777777" transform="translate(745,154)"/>
<path d="M0 0 C0.66 0 1.32 0 2 0 C2 7.26 2 14.52 2 22 C1.67 22 1.34 22 1 22 C0.67 23.65 0.34 25.3 0 27 C-0.66 25.68 -1.32 24.36 -2 23 C-2.515625 23.33 -3.03125 23.66 -3.5625 24 C-6.9260416 25.3799145 -9.39238959 25.37974846 -13 25 C-17.58823529 22.20716113 -17.58823529 22.20716113 -18.62890625 19.15625 C-19.03278485 16.80950275 -19.09749786 14.62985474 -19.0625 12.25 C-19.05347656 11.45078125 -19.04445313 10.6515625 -19.03515625 9.828125 C-19.02355469 9.22484375 -19.01195312 8.6215625 -19 8 C-18.34 7.67 -17.68 7.34 -17 7 C-16.89042969 7.67546875 -16.78085937 8.3509375 -16.66796875 9.046875 C-16.50941406 9.93890625 -16.35085938 10.8309375 -16.1875 11.75 C-16.03667969 12.63171875 -15.88585937 13.5134375 -15.73046875 14.421875 C-14.93057217 17.2450394 -14.01544898 18.87719054 -12 21 C-8.75313026 21.47350184 -6.89177198 21.64576592 -4.1875 19.6875 C-1.72000233 16.18105594 -1.89300351 12.95067331 -1.9375 8.8125 C-1.94652344 7.72582031 -1.95554687 6.63914062 -1.96484375 5.51953125 C-1.97644531 4.68808594 -1.98804688 3.85664062 -2 3 C-1.34 3 -0.68 3 0 3 C0 2.01 0 1.02 0 0 Z " fill="#999999" transform="translate(487,93)"/>
<path d="M0 0 C2.49455917 3.74183875 2.37606522 5.56243036 2 10 C0.67926962 14.20982808 -0.9295331 16.28165258 -4.6875 18.4375 C-9.1638604 20.43986454 -12.27178596 20.05977211 -17 19 C-17.66 18.67 -18.32 18.34 -19 18 C-19 16.35 -19 14.7 -19 13 C-17.68 13 -16.36 13 -15 13 C-14.67 13.33 -14.34 13.66 -14 14 C-10.57383927 14.31044613 -10.57383927 14.31044613 -7 13 C-5.61705787 10.73700379 -4.76445712 8.54309857 -3.921875 6.03125 C-3.61765625 5.3609375 -3.3134375 4.690625 -3 4 C-2.01 3.67 -1.02 3.34 0 3 C0 2.01 0 1.02 0 0 Z " fill="#787878" transform="translate(575,148)"/>
<path d="M0 0 C1.98 0 3.96 0 6 0 C6 8.25 6 16.5 6 25 C4.02 25 2.04 25 0 25 C0 16.75 0 8.5 0 0 Z " fill="#747474" transform="translate(786,142)"/>
<path d="M0 0 C0.99 0 1.98 0 3 0 C3.33 5.94 3.66 11.88 4 18 C6.31 18.33 8.62 18.66 11 19 C14.02093215 15.97906785 13.46676834 12.43627928 13.625 8.375 C13.66367187 7.57320312 13.70234375 6.77140625 13.7421875 5.9453125 C13.83653931 3.96392444 13.91936215 1.98199355 14 0 C14.99 0 15.98 0 17 0 C17.05404449 2.75026417 17.09369306 5.49946203 17.125 8.25 C17.15013672 9.41595703 17.15013672 9.41595703 17.17578125 10.60546875 C17.23866553 17.96292928 17.23866553 17.96292928 15 21 C12.68722219 22.15638891 11.19908779 22.19868928 8.625 22.25 C7.85414063 22.27578125 7.08328125 22.3015625 6.2890625 22.328125 C3.16215607 21.8798995 2.04017651 21.46944441 0 19 C-0.49854413 15.75985325 -0.37432051 12.58069494 -0.25 9.3125 C-0.23195313 8.41982422 -0.21390625 7.52714844 -0.1953125 6.60742188 C-0.14817759 4.40386496 -0.08240657 2.20247399 0 0 Z " fill="#8B8B8A" transform="translate(258,160)"/>
<path d="M0 0 C1.65 0 3.3 0 5 0 C5 1.32 5 2.64 5 4 C5.66 4.33 6.32 4.66 7 5 C6.67 11.6 6.34 18.2 6 25 C4.02 25 2.04 25 0 25 C0 16.75 0 8.5 0 0 Z " fill="#747473" transform="translate(582,142)"/>
<path d="M0 0 C0.66 0.33 1.32 0.66 2 1 C2 7.6 2 14.2 2 21 C-0.31 21 -2.62 21 -5 21 C-5.05380578 18.20807795 -5.09357669 15.4171859 -5.125 12.625 C-5.14175781 11.8309375 -5.15851562 11.036875 -5.17578125 10.21875 C-5.19335473 8.14507985 -5.10335168 6.07116759 -5 4 C-4.34 3.34 -3.68 2.68 -3 2 C-2.01 2 -1.02 2 0 2 C0 1.34 0 0.68 0 0 Z " fill="#80807F" transform="translate(851,146)"/>
<path d="M0 0 C3 1.875 3 1.875 5 4 C5 4.66 5 5.32 5 6 C2.13275314 5.42655063 1.1385485 5.1385485 -1 3 C-4.30184112 2.57848837 -6.18023401 2.37151274 -8.875 4.4375 C-10.51918919 8.18259761 -10.75595176 11.9756686 -10 16 C-8.02170598 18.58566499 -7.301961 18.94967317 -4 19.5 C-2.515 19.2525 -2.515 19.2525 -1 19 C0.71711243 16.55503957 0.71711243 16.55503957 2 14 C2.99 14 3.98 14 5 14 C4.4360709 17.27078876 3.54319569 18.86371562 1 21 C-2.10048928 22.55024464 -4.57894218 22.28992015 -8 22 C-11.38939556 19.86320715 -12.72582557 18.8225233 -14 15 C-14.53094699 10.35203781 -14.64784823 7.03655716 -12.125 3 C-8.4613204 -0.44816904 -4.8812336 -0.6999857 0 0 Z " fill="#898989" transform="translate(248,160)"/>
<path d="M0 0 C0 1.32 0 2.64 0 4 C-0.94875 4.28875 -1.8975 4.5775 -2.875 4.875 C-6.05211578 5.76825109 -6.05211578 5.76825109 -8 8 C-8.36831081 9.93257855 -8.36831081 9.93257855 -8.4140625 12.1328125 C-8.45273437 12.93847656 -8.49140625 13.74414062 -8.53125 14.57421875 C-8.5621875 15.41597656 -8.593125 16.25773437 -8.625 17.125 C-8.66367187 17.97449219 -8.70234375 18.82398437 -8.7421875 19.69921875 C-8.83656494 21.79911684 -8.91937586 23.89952891 -9 26 C-10.32 26 -11.64 26 -13 26 C-13 17.75 -13 9.5 -13 1 C-12.01 1 -11.02 1 -10 1 C-10 2.32 -10 3.64 -10 5 C-9.34 5 -8.68 5 -8 5 C-7.566875 4.0409375 -7.566875 4.0409375 -7.125 3.0625 C-5.228943 -0.41360449 -4.0216034 0 0 0 Z " fill="#8C8C8C" transform="translate(603,92)"/>
<path d="M0 0 C0.99 0 1.98 0 3 0 C3 0.99 3 1.98 3 3 C0.24511575 3.91829475 -1.35932215 4.12377724 -4.19511414 4.12025452 C-5.47604446 4.12231651 -5.47604446 4.12231651 -6.78285217 4.12442017 C-7.71649094 4.12082489 -8.6501297 4.11722961 -9.61206055 4.11352539 C-11.09038361 4.11374443 -11.09038361 4.11374443 -12.59857178 4.1139679 C-15.8613097 4.11327035 -19.12399078 4.10548527 -22.38671875 4.09765625 C-24.6468757 4.09579151 -26.90703305 4.09436787 -29.16719055 4.09336853 C-35.1200573 4.08954776 -41.07289971 4.07972119 -47.02575684 4.06866455 C-53.09854808 4.058441 -59.17134326 4.05386888 -65.24414062 4.04882812 C-77.16277112 4.03809856 -89.08138354 4.02102738 -101 4 C-101 3.67 -101 3.34 -101 3 C-68 2.67 -35 2.34 -1 2 C-0.67 1.34 -0.34 0.68 0 0 Z " fill="#B81217" transform="translate(180,140)"/>
<path d="M0 0 C1.32 0 2.64 0 4 0 C5.05556451 5.7626003 4.94831638 11.1059076 4.5625 16.9375 C4.51029297 17.81212891 4.45808594 18.68675781 4.40429688 19.58789062 C4.2757979 21.72564632 4.13877359 23.86288669 4 26 C2.68 26 1.36 26 0 26 C0 17.42 0 8.84 0 0 Z " fill="#8B8B8A" transform="translate(685,92)"/>
<path d="M0 0 C1.98 0.99 1.98 0.99 4 2 C4.92188461 4.76565382 5.11785222 6.38283702 5.09765625 9.23046875 C5.09443359 10.03291016 5.09121094 10.83535156 5.08789062 11.66210938 C5.07532227 12.91217773 5.07532227 12.91217773 5.0625 14.1875 C5.05798828 15.03248047 5.05347656 15.87746094 5.04882812 16.74804688 C5.03705403 18.83206155 5.0191189 20.91603977 5 23 C3.35 23 1.7 23 0 23 C0 15.41 0 7.82 0 0 Z " fill="#717170" transform="translate(675,144)"/>
<path d="M0 0 C2.69995117 1.18286133 2.69995117 1.18286133 5 3 C5.56762695 5.4519043 5.56762695 5.4519043 5.48828125 8.32421875 C5.47216797 9.35224609 5.45605469 10.38027344 5.43945312 11.43945312 C5.39755859 12.51130859 5.35566406 13.58316406 5.3125 14.6875 C5.27866211 16.31268555 5.27866211 16.31268555 5.24414062 17.97070312 C5.1851579 20.64851905 5.10290307 23.32357027 5 26 C4.01 26 3.02 26 2 26 C1.98018066 25.40461426 1.96036133 24.80922852 1.93994141 24.19580078 C1.84483874 21.50507847 1.73510158 18.81514852 1.625 16.125 C1.5940625 15.18785156 1.563125 14.25070313 1.53125 13.28515625 C1.49257813 12.38925781 1.45390625 11.49335937 1.4140625 10.5703125 C1.36693115 9.32918701 1.36693115 9.32918701 1.31884766 8.06298828 C1.17400863 5.78013915 1.17400863 5.78013915 -1 4 C-3.65537372 3.43479997 -6.29144713 3.26211802 -9 3 C-9 2.34 -9 1.68 -9 1 C-5.93570224 -0.53214888 -3.3834358 -0.22938548 0 0 Z " fill="#828282" transform="translate(456,92)"/>
<path d="M0 0 C0.3125 2.75 0.3125 2.75 0 6 C-2.85159638 9.28365644 -4.39471903 9.94955992 -8.75 10.3125 C-12 10 -12 10 -13 9 C-13.25 6.0625 -13.25 6.0625 -13 3 C-8.72816203 0.15210802 -5.07638947 0 0 0 Z " fill="#F8F8F8" transform="translate(634,105)"/>
<path d="M0 0 C1.32 0 2.64 0 4 0 C4 8.58 4 17.16 4 26 C2.68 26 1.36 26 0 26 C0 17.42 0 8.84 0 0 Z " fill="#969696" transform="translate(607,92)"/>
<path d="M0 0 C1.32 0 2.64 0 4 0 C4 8.58 4 17.16 4 26 C2.68 26 1.36 26 0 26 C0 17.42 0 8.84 0 0 Z " fill="#9B9B9B" transform="translate(552,92)"/>
<path d="M0 0 C0.99 0 1.98 0 3 0 C3 11.22 3 22.44 3 34 C2.01 34 1.02 34 0 34 C0 22.78 0 11.56 0 0 Z " fill="#747473" transform="translate(429,83)"/>
<path d="M0 0 C0.515625 0.515625 1.03125 1.03125 1.5625 1.5625 C4.99168004 3.58483695 7.21291618 2.85745294 11 2 C11.33 1.67 11.66 1.34 12 1 C13.99958364 0.95919217 16.00045254 0.95745644 18 1 C16.46812051 4.1488634 15.2077501 5.85505807 12.3125 7.875 C8.20012746 9.27165482 5.12109871 9.43011434 1 8 C-2 5.4375 -2 5.4375 -4 3 C-2.68 3 -1.36 3 0 3 C0 2.01 0 1.02 0 0 Z " fill="#797979" transform="translate(457,159)"/>
<path d="M0 0 C2.875 1.75 2.875 1.75 5 4 C5 5.32 5 6.64 5 8 C0.05 8 -4.9 8 -10 8 C-9 3 -9 3 -7.8125 1.1875 C-5.05641317 -0.61821206 -3.22701096 -0.45178153 0 0 Z " fill="#F6F6F6" transform="translate(576,95)"/>
<path d="M0 0 C1.93875 -0.020625 3.8775 -0.04125 5.875 -0.0625 C6.96554687 -0.07410156 8.05609375 -0.08570313 9.1796875 -0.09765625 C12 0 12 0 14 1 C14 1.66 14 2.32 14 3 C10.37 2.67 6.74 2.34 3 2 C3 4.97 3 7.94 3 11 C5.97 11 8.94 11 12 11 C12 11.33 12 11.66 12 12 C9.03 12 6.06 12 3 12 C3 15.3 3 18.6 3 22 C2.01 22 1.02 22 0 22 C0 14.74 0 7.48 0 0 Z " fill="#909090" transform="translate(348,160)"/>
<path d="M0 0 C1.65 0 3.3 0 5 0 C5 6.27 5 12.54 5 19 C4.34 19 3.68 19 3 19 C2.67 19.66 2.34 20.32 2 21 C0 19 0 19 -0.22705078 17.02880859 C-0.21657715 16.24328613 -0.20610352 15.45776367 -0.1953125 14.6484375 C-0.18886719 13.79765625 -0.18242188 12.946875 -0.17578125 12.0703125 C-0.15902344 11.18085938 -0.14226563 10.29140625 -0.125 9.375 C-0.11597656 8.4778125 -0.10695313 7.580625 -0.09765625 6.65625 C-0.0740497 4.43723414 -0.0411231 2.21874923 0 0 Z " fill="#727270" transform="translate(628,142)"/>
<path d="M0 0 C1.9375 1.3125 1.9375 1.3125 3 3 C3 4.32 3 5.64 3 7 C-1.95 7 -6.9 7 -12 7 C-11 2 -11 2 -9.375 0.125 C-5.9196228 -1.51175762 -3.64481875 -0.92777204 0 0 Z " fill="#F8F8F8" transform="translate(673,96)"/>
<path d="M0 0 C2.375 1.1875 2.375 1.1875 4 3 C4 4.65 4 6.3 4 8 C-0.62 8 -5.24 8 -10 8 C-9.67 6.02 -9.34 4.04 -9 2 C-5.51131349 -0.32579101 -4.10281481 -0.41865457 0 0 Z " fill="#F7F7F7" transform="translate(510,95)"/>
<path d="M0 0 C1.81242052 -0.02687279 3.62495233 -0.04633715 5.4375 -0.0625 C6.44683594 -0.07410156 7.45617187 -0.08570313 8.49609375 -0.09765625 C11 0 11 0 12 1 C12.25 3.4375 12.25 3.4375 12 6 C7.95807022 8.69461986 5.7948504 8.23200889 1 8 C0 7 0 7 -0.0625 3.4375 C-0.041875 2.303125 -0.02125 1.16875 0 0 Z " fill="#F4F4F4" transform="translate(81,172)"/>
<path d="M0 0 C0.66 0.33 1.32 0.66 2 1 C2.43712969 6.24555629 2.43712969 6.24555629 2 9 C-1.40410997 12.49369181 -3.91293792 13.90941149 -8.75 14.3125 C-13.12033397 14.26464963 -15.67958707 12.90536131 -19 10 C-19 9.01 -19 8.02 -19 7 C-17.68 7 -16.36 7 -15 7 C-14.54625 7.495 -14.0925 7.99 -13.625 8.5 C-12.00620366 10.30201963 -12.00620366 10.30201963 -9.0625 10.25 C-6.56052492 10.04575714 -4.38908655 9.73510355 -2 9 C-2 8.01 -2 7.02 -2 6 C-1.34 6 -0.68 6 0 6 C0 4.02 0 2.04 0 0 Z " fill="#7F7F7F" transform="translate(487,114)"/>
<path d="M0 0 C1.32 0 2.64 0 4 0 C4 7.26 4 14.52 4 22 C2.68 22 1.36 22 0 22 C0 14.74 0 7.48 0 0 Z " fill="#A0A0A0" transform="translate(69,160)"/>
<path d="M0 0 C0.66 0 1.32 0 2 0 C1.67 1.98 1.34 3.96 1 6 C3.97 6 6.94 6 10 6 C10.33 5.34 10.66 4.68 11 4 C13.03435531 7.72965139 14 9.66905042 14 14 C13.01 13.67 12.02 13.34 11 13 C10.67 11.35 10.34 9.7 10 8 C6.7 8.33 3.4 8.66 0 9 C-0.66 10.65 -1.32 12.3 -2 14 C-2.99 14 -3.98 14 -5 14 C-4.46515599 8.65155992 -2.53309233 4.64203897 0 0 Z " fill="#909090" transform="translate(168,168)"/>
<path d="M0 0 C0.2475 0.5775 0.495 1.155 0.75 1.75 C2.28556451 4.51401612 3.39966934 6.15239664 6 8 C8.82109233 8.03783074 11.2055536 7.55888928 14 7 C14.33 6.01 14.66 5.02 15 4 C16.32 4 17.64 4 19 4 C18.69025617 6.89094238 17.95829554 8.04691751 16 10.25 C11.92707483 12.62587302 8.61040814 12.96252381 4 12 C1.43361596 10.5806325 0.03758388 9.1943211 -2 7 C-2 6.34 -2 5.68 -2 5 C-1.34 5 -0.68 5 0 5 C0 3.35 0 1.7 0 0 Z " fill="#959595" transform="translate(565,106)"/>
<path d="M0 0 C1.258125 -0.04125 2.51625 -0.0825 3.8125 -0.125 C4.52019531 -0.14820313 5.22789062 -0.17140625 5.95703125 -0.1953125 C8 0 8 0 11 2 C11.25 4.5625 11.25 4.5625 11 7 C10 8 10 8 7.71484375 8.09765625 C6.34005859 8.08025391 6.34005859 8.08025391 4.9375 8.0625 C4.01839844 8.05347656 3.09929687 8.04445312 2.15234375 8.03515625 C1.44207031 8.02355469 0.73179687 8.01195312 0 8 C0 5.36 0 2.72 0 0 Z " fill="#F7F7F7" transform="translate(146,162)"/>
<path d="M0 0 C1.91015625 0.23046875 1.91015625 0.23046875 3.91015625 2.23046875 C4.09765625 4.79296875 4.09765625 4.79296875 3.91015625 7.23046875 C2.91015625 8.23046875 2.91015625 8.23046875 0.625 8.328125 C-0.74978516 8.31072266 -0.74978516 8.31072266 -2.15234375 8.29296875 C-3.07144531 8.28394531 -3.99054688 8.27492187 -4.9375 8.265625 C-5.64777344 8.25402344 -6.35804687 8.24242187 -7.08984375 8.23046875 C-7.13226098 5.897521 -7.13077312 3.56344308 -7.08984375 1.23046875 C-5.19495423 -0.66442077 -2.51845229 0.05027763 0 0 Z " fill="#F7F7F7" transform="translate(131.08984375,161.76953125)"/>
<path d="M0 0 C0.33 0 0.66 0 1 0 C1 5.94 1 11.88 1 18 C1.66 18 2.32 18 3 18 C3 18.99 3 19.98 3 21 C1.35 21 -0.3 21 -2 21 C-2 20.01 -2 19.02 -2 18 C-2.825 18.495 -3.65 18.99 -4.5 19.5 C-8.75488188 21.32352081 -11.42308671 21.23673689 -16 21 C-16 20.67 -16 20.34 -16 20 C-13.69 20 -11.38 20 -9 20 C-8.67 19.01 -8.34 18.02 -8 17 C-7.34 16.566875 -6.68 16.13375 -6 15.6875 C-3.27485061 13.3881552 -3.30718006 11.45577567 -3 8 C-3.66 7.67 -4.32 7.34 -5 7 C-4.01 6.67 -3.02 6.34 -2 6 C-2 8.31 -2 10.62 -2 13 C-1.34 13 -0.68 13 0 13 C0 8.71 0 4.42 0 0 Z " fill="#949494" transform="translate(637,97)"/>
<path d="M0 0 C1.45792884 -0.05399736 2.91642712 -0.09279177 4.375 -0.125 C5.18710938 -0.14820313 5.99921875 -0.17140625 6.8359375 -0.1953125 C9 0 9 0 11 2 C10.75 4.5625 10.75 4.5625 10 7 C7.01787087 8.49106457 4.28390342 8.11941467 1 8 C0 7 0 7 -0.0625 3.4375 C-0.041875 2.303125 -0.02125 1.16875 0 0 Z " fill="#F1F1F1" transform="translate(81,162)"/>
<path d="M0 0 C7.75 -0.125 7.75 -0.125 10 1 C10 3.31 10 5.62 10 8 C6.7 8 3.4 8 0 8 C0 5.36 0 2.72 0 0 Z " fill="#F6F6F6" transform="translate(351,162)"/>
<path d="M0 0 C2.8100346 1.79363911 4.50940468 3.01880935 6 6 C6.13415472 8.6723621 6.04318541 11.32250488 6 14 C5.01 14.495 5.01 14.495 4 15 C3.938125 13.7625 3.87625 12.525 3.8125 11.25 C3.39053388 7.98987821 3.09437929 7.11103445 0.875 4.5 C-2.63278258 2.66985257 -5.09658749 2.69385 -9 3 C-10.61064629 6.65079826 -11.44894091 10.0507432 -12 14 C-12.33 14 -12.66 14 -13 14 C-13.7717869 5.01297031 -13.7717869 5.01297031 -11 1.375 C-7.17026472 -0.38029534 -4.14193833 -0.85349032 0 0 Z " fill="#8F8F8F" transform="translate(337,160)"/>
<path d="M0 0 C2.49455917 3.74183875 2.37606522 5.56243036 2 10 C0.5 13.4375 0.5 13.4375 -1 16 C-1.99 16 -2.98 16 -4 16 C-4 15.34 -4 14.68 -4 14 C-4.99 13.67 -5.98 13.34 -7 13 C-6.40917986 11.51545194 -5.80187345 10.03745649 -5.1875 8.5625 C-4.85105469 7.73878906 -4.51460937 6.91507813 -4.16796875 6.06640625 C-3 4 -3 4 0 3 C0 2.01 0 1.02 0 0 Z " fill="#7E7E7E" transform="translate(575,148)"/>
<path d="M0 0 C0.33 0 0.66 0 1 0 C1.33 6.6 1.66 13.2 2 20 C2.99 20 3.98 20 5 20 C4.97679687 19.30132812 4.95359375 18.60265625 4.9296875 17.8828125 C4.90261719 16.51769531 4.90261719 16.51769531 4.875 15.125 C4.85179687 14.22007812 4.82859375 13.31515625 4.8046875 12.3828125 C5 10 5 10 7 8 C7 13.61 7 19.22 7 25 C4.69 25 2.38 25 0 25 C0 16.75 0 8.5 0 0 Z " fill="#939392" transform="translate(657,142)"/>
<path d="M0 0 C1.2065625 0.0309375 1.2065625 0.0309375 2.4375 0.0625 C1.48762011 3.57705559 0.77804201 4.83805186 -2.3125 6.875 C-5.65327631 8.09566827 -8.0396723 8.31413055 -11.5625 8.0625 C-11.8925 7.0725 -12.2225 6.0825 -12.5625 5.0625 C-13.2225 4.7325 -13.8825 4.4025 -14.5625 4.0625 C-13.78003906 3.85753906 -12.99757813 3.65257812 -12.19140625 3.44140625 C-11.17949219 3.17199219 -10.16757812 2.90257812 -9.125 2.625 C-8.11566406 2.35816406 -7.10632813 2.09132812 -6.06640625 1.81640625 C-0.03664741 0.00089384 -0.03664741 0.00089384 0 0 Z " fill="#7B7B7B" transform="translate(513.5625,159.9375)"/>
<path d="M0 0 C-0.25 3.375 -0.25 3.375 -1 7 C-2.75 8.5 -2.75 8.5 -5 9 C-7.75 8.625 -7.75 8.625 -10 8 C-10.625 5.625 -10.625 5.625 -11 3 C-7.97062848 -0.02937152 -4.18236037 0 0 0 Z " fill="#F3F3F2" transform="translate(745,155)"/>
<path d="M0 0 C2.475 0.99 2.475 0.99 5 2 C4.67 5.96 4.34 9.92 4 14 C3.67 13.34 3.34 12.68 3 12 C2.01 12.495 2.01 12.495 1 13 C1.33 13.66 1.66 14.32 2 15 C1.34 15 0.68 15 0 15 C-0.33 15.66 -0.66 16.32 -1 17 C-1.75429081 12.00282342 -2.3515243 7.8992756 -1 3 C-0.34 3 0.32 3 1 3 C0.67 2.01 0.34 1.02 0 0 Z " fill="#70706F" transform="translate(746,144)"/>
<path d="M0 0 C0 0.33 0 0.66 0 1 C-2.64 1.66 -5.28 2.32 -8 3 C-8 4.98 -8 6.96 -8 9 C-5.03 9.495 -5.03 9.495 -2 10 C-2 10.66 -2 11.32 -2 12 C-3.45742463 12.08096803 -4.91612807 12.13917774 -6.375 12.1875 C-7.18710937 12.22230469 -7.99921875 12.25710937 -8.8359375 12.29296875 C-9.55007813 12.19628906 -10.26421875 12.09960938 -11 12 C-13.46943529 8.29584707 -13.46913089 6.37855495 -13 2 C-9.78170514 -2.47762763 -4.78491157 -0.84860611 0 0 Z " fill="#919191" transform="translate(630,105)"/>
<path d="M0 0 C0.66 0.33 1.32 0.66 2 1 C2 3.97 2 6.94 2 10 C5.3 10 8.6 10 12 10 C12 10.33 12 10.66 12 11 C7.545 11.495 7.545 11.495 3 12 C2.67 14.97 2.34 17.94 2 21 C1.01 21 0.02 21 -1 21 C-1.02895976 17.87501937 -1.04678483 14.7500731 -1.0625 11.625 C-1.07087891 10.73554688 -1.07925781 9.84609375 -1.08789062 8.9296875 C-1.09111328 8.07890625 -1.09433594 7.228125 -1.09765625 6.3515625 C-1.10289307 5.56604004 -1.10812988 4.78051758 -1.11352539 3.97119141 C-1 2 -1 2 0 0 Z " fill="#888888" transform="translate(122,161)"/>
<path d="M0 0 C1.32 0 2.64 0 4 0 C4.53229326 1.26607607 5.05044544 2.53810412 5.5625 3.8125 C5.85253906 4.52019531 6.14257812 5.22789062 6.44140625 5.95703125 C7 8 7 8 6 11 C3 6.25 3 6.25 3 4 C2.34 4 1.68 4 1 4 C0.01 7.3 -0.98 10.6 -2 14 C0.64 14 3.28 14 6 14 C6 14.33 6 14.66 6 15 C3.03 15 0.06 15 -3 15 C-4.18956883 10.84773144 -3.78960563 8.61274007 -2.0625 4.6875 C-1.68222656 3.80449219 -1.30195313 2.92148438 -0.91015625 2.01171875 C-0.60980469 1.34785156 -0.30945313 0.68398437 0 0 Z " fill="#969696" transform="translate(286,160)"/>
<path d="M0 0 C3 1.875 3 1.875 5 4 C5 4.66 5 5.32 5 6 C2.13275314 5.42655063 1.1385485 5.1385485 -1 3 C-3.95769177 2.49989476 -3.95769177 2.49989476 -7 3 C-10.15936057 5.83253016 -10.53374641 8.89696842 -11 13 C-11.99 12.34 -12.98 11.68 -14 11 C-13.76928323 7.0009094 -13.56356875 4.66603579 -10.9375 1.5625 C-7.14938021 -0.45245733 -4.20595134 -0.86493354 0 0 Z " fill="#939393" transform="translate(248,160)"/>
<path d="M0 0 C0.33 0 0.66 0 1 0 C1.33 2.64 1.66 5.28 2 8 C4.64 8.33 7.28 8.66 10 9 C10 9.33 10 9.66 10 10 C7.03 10 4.06 10 1 10 C1 13.3 1 16.6 1 20 C0.01 20 -0.98 20 -2 20 C-2 14.39 -2 8.78 -2 3 C-1.34 3 -0.68 3 0 3 C0 2.01 0 1.02 0 0 Z " fill="#848484" transform="translate(145,162)"/>
<path d="M0 0 C3.13541649 0.25422296 4.57620373 0.50423832 6.65625 2.9375 C8.55730515 7.27013731 8.32336939 11.14068343 8.1875 15.8125 C8.17396484 16.69615234 8.16042969 17.57980469 8.14648438 18.49023438 C8.11129217 20.66042023 8.05748985 22.83029033 8 25 C7.67 25 7.34 25 7 25 C6.93941406 23.73542969 6.87882813 22.47085938 6.81640625 21.16796875 C6.73199096 19.50780129 6.64734345 17.84764563 6.5625 16.1875 C6.52318359 15.35412109 6.48386719 14.52074219 6.44335938 13.66210938 C6.38051758 12.45844727 6.38051758 12.45844727 6.31640625 11.23046875 C6.27974854 10.49207764 6.24309082 9.75368652 6.20532227 8.99291992 C6.05157859 6.792505 6.05157859 6.792505 5 4 C4.34 3.67 3.68 3.34 3 3 C2.67 10.26 2.34 17.52 2 25 C1.67 25 1.34 25 1 25 C0.93941406 23.75863281 0.87882813 22.51726562 0.81640625 21.23828125 C0.73196377 19.59634423 0.64731764 17.95441768 0.5625 16.3125 C0.52318359 15.49587891 0.48386719 14.67925781 0.44335938 13.83789062 C0.26752012 10.49694486 0.0662339 7.32770629 -0.59765625 4.04296875 C-1 2 -1 2 0 0 Z " fill="#939392" transform="translate(673,142)"/>
<path d="M0 0 C0.66 0 1.32 0 2 0 C2.33 1.98 2.66 3.96 3 6 C-3.27 6 -9.54 6 -16 6 C-16 6.66 -16 7.32 -16 8 C-16.66 8 -17.32 8 -18 8 C-18 5.69 -18 3.38 -18 1 C-17.34 1 -16.68 1 -16 1 C-16 1.99 -16 2.98 -16 4 C-10.72 4 -5.44 4 0 4 C0 2.68 0 1.36 0 0 Z " fill="#828282" transform="translate(515,99)"/>
<path d="M0 0 C0.33 0 0.66 0 1 0 C1.33 6.27 1.66 12.54 2 19 C3.32 19 4.64 19 6 19 C6 12.73 6 6.46 6 0 C6.33 0 6.66 0 7 0 C7.33 6.6 7.66 13.2 8 20 C7.01 20.33 6.02 20.66 5 21 C5 21.66 5 22.32 5 23 C3.35 22.67 1.7 22.34 0 22 C0 14.74 0 7.48 0 0 Z " fill="#A4A4A3" transform="translate(627,142)"/>
<path d="M0 0 C1.75 0.125 1.75 0.125 4 1 C7.75086487 5.4801997 8 6.87017366 8 13 C1.73 13 -4.54 13 -11 13 C-11 12.67 -11 12.34 -11 12 C-5.06 12 0.88 12 7 12 C6.34 11.34 5.68 10.68 5 10 C4.71125 9.38125 4.4225 8.7625 4.125 8.125 C2.78740726 5.59843593 1.07936068 3.94073664 -1 2 C-0.67 1.34 -0.34 0.68 0 0 Z " fill="#999999" transform="translate(577,93)"/>
<path d="M0 0 C0.66 0 1.32 0 2 0 C2 7.26 2 14.52 2 22 C0.68 21.67 -0.64 21.34 -2 21 C-1.835 20.34 -1.67 19.68 -1.5 19 C-0.5967727 13.58063618 -0.6628721 8.34851158 -2 3 C-1.34 3 -0.68 3 0 3 C0 2.01 0 1.02 0 0 Z " fill="#777775" transform="translate(487,93)"/>
<path d="M0 0 C1.8125 1.3125 1.8125 1.3125 3 3 C3 3.99 3 4.98 3 6 C-0.96 6 -4.92 6 -9 6 C-6.68387161 0.20967903 -5.95062163 -0.58054845 0 0 Z " fill="#F4F4F3" transform="translate(873,146)"/>
<path d="M0 0 C2.9375 0.75 2.9375 0.75 4.9375 2.75 C4.9375 3.74 4.9375 4.73 4.9375 5.75 C0.9775 5.75 -2.9825 5.75 -7.0625 5.75 C-5.87466157 0.99864628 -5.02172468 -0.40993671 0 0 Z " fill="#F2F2F2" transform="translate(506.0625,146.25)"/>
<path d="M0 0 C1.18613892 0.00785522 1.18613892 0.00785522 2.39624023 0.01586914 C3.67724609 0.02070312 3.67724609 0.02070312 4.98413086 0.02563477 C5.88196289 0.03401367 6.77979492 0.04239258 7.70483398 0.05102539 C8.6065332 0.05553711 9.50823242 0.06004883 10.43725586 0.06469727 C12.67234712 0.07652315 14.90730835 0.09300319 17.14233398 0.11352539 C17.47233398 1.10352539 17.80233398 2.09352539 18.14233398 3.11352539 C12.20233398 3.44352539 6.26233398 3.77352539 0.14233398 4.11352539 C-0.18766602 5.76352539 -0.51766602 7.41352539 -0.85766602 9.11352539 C-1.51766602 9.11352539 -2.17766602 9.11352539 -2.85766602 9.11352539 C-2.95532227 2.96118164 -2.95532227 2.96118164 -2.85766602 1.11352539 C-1.85766602 0.11352539 -1.85766602 0.11352539 0 0 Z " fill="#7D7D7D" transform="translate(565.857666015625,101.886474609375)"/>
<path d="M0 0 C2 1 2 1 4 4 C2.375 6 2.375 6 0 8 C-3.25 8.25 -3.25 8.25 -6 8 C-6 11.63 -6 15.26 -6 19 C-6.33 19 -6.66 19 -7 19 C-7.62693289 8.08091878 -7.62693289 8.08091878 -5.1875 3.875 C-3 2 -3 2 0 0 Z " fill="#858584" transform="translate(529,142)"/>
<path d="M0 0 C0.66 0.66 1.32 1.32 2 2 C1.67 2.66 1.34 3.32 1 4 C7.435 3.505 7.435 3.505 14 3 C14 3.66 14 4.32 14 5 C13.01 5.495 13.01 5.495 12 6 C12 6.66 12 7.32 12 8 C10.20866022 8.05391993 8.41686101 8.09275571 6.625 8.125 C5.62726562 8.14820313 4.62953125 8.17140625 3.6015625 8.1953125 C1 8 1 8 -1 6 C-0.625 2.875 -0.625 2.875 0 0 Z " fill="#7F7F7F" transform="translate(863,148)"/>
<path d="M0 0 C1.32 0.33 2.64 0.66 4 1 C4 1.66 4 2.32 4 3 C18.85 3 33.7 3 49 3 C49 3.33 49 3.66 49 4 C42.50396012 4.10129515 36.00812332 4.17142075 29.51147461 4.21972656 C27.30078521 4.23986064 25.09014918 4.26717015 22.87963867 4.30175781 C19.70478154 4.35019629 16.53062752 4.37295072 13.35546875 4.390625 C12.36475876 4.41127014 11.37404877 4.43191528 10.35331726 4.45318604 C9.43258926 4.45348816 8.51186127 4.45379028 7.56323242 4.45410156 C6.34744759 4.46742523 6.34744759 4.46742523 5.10710144 4.48101807 C3 4 3 4 1.21479797 1.97161865 C0.81391464 1.3209845 0.41303131 0.67035034 0 0 Z " fill="#B82126" transform="translate(312,140)"/>
<path d="M0 0 C1.0209375 0.8353125 1.0209375 0.8353125 2.0625 1.6875 C2.0625 2.6775 2.0625 3.6675 2.0625 4.6875 C-0.10624252 4.18146008 -1.93717627 3.68766187 -3.9375 2.6875 C-8.15896566 2.40606896 -11.11041493 2.88651879 -14.9375 4.6875 C-14.60161682 2.16837612 -14.36395046 1.01553881 -12.3125 -0.5625 C-7.87790538 -1.9628983 -4.24738983 -1.89776992 0 0 Z " fill="#7F7F7F" transform="translate(513.9375,93.3125)"/>
<path d="M0 0 C0.66 0 1.32 0 2 0 C1.67 1.98 1.34 3.96 1 6 C3.31 6 5.62 6 8 6 C5 8 5 8 2.4375 8.3125 C1.2309375 8.6528125 1.2309375 8.6528125 0 9 C-1.37466625 11.47636012 -1.37466625 11.47636012 -2 14 C-2.99 14 -3.98 14 -5 14 C-3.8545847 8.8896856 -2.54521255 4.62765919 0 0 Z " fill="#80807F" transform="translate(103,168)"/>
<path d="M0 0 C11.35319149 -0.49361702 11.35319149 -0.49361702 14.375 1.8125 C16.4922606 4.66265851 16.31517357 6.53309073 16 10 C14 8 14 8 12.5 5.4375 C11.23133163 2.89593129 11.23133163 2.89593129 9 2 C6.69 2 4.38 2 2 2 C1.67 7.28 1.34 12.56 1 18 C0.67 18 0.34 18 0 18 C0 12.06 0 6.12 0 0 Z " fill="#818181" transform="translate(303,161)"/>
<path d="M0 0 C2 3 2 3 2 8 C-3.94 8 -9.88 8 -16 8 C-16 7.67 -16 7.34 -16 7 C-11.6835078 6.23826608 -8.25566547 5.83936396 -4 7 C-3.896875 6.21625 -3.79375 5.4325 -3.6875 4.625 C-3 2 -3 2 0 0 Z " fill="#787878" transform="translate(473,148)"/>
<path d="M0 0 C2.54647573 0.10998068 4.08773777 0.23136888 6.375 1.375 C6.375 2.035 6.375 2.695 6.375 3.375 C4.81383181 3.71451619 3.25098662 4.04632544 1.6875 4.375 C0.38232422 4.6534375 0.38232422 4.6534375 -0.94921875 4.9375 C-3.56212964 5.36472047 -5.98313038 5.45116201 -8.625 5.375 C-6.25590973 1.25484301 -4.65752178 0.01500007 0 0 Z " fill="#717171" transform="translate(463.625,141.625)"/>
<path d="M0 0 C0.556875 0.474375 1.11375 0.94875 1.6875 1.4375 C4.18346074 3.12395996 6.0446237 3.58953107 9 4 C8.01 4.66 7.02 5.32 6 6 C6.99 6.99 7.98 7.98 9 9 C1.73846154 8.63076923 1.73846154 8.63076923 -2 5.4375 C-2.66 4.633125 -3.32 3.82875 -4 3 C-2.68 3 -1.36 3 0 3 C0 2.01 0 1.02 0 0 Z " fill="#7F7F7F" transform="translate(457,159)"/>
<path d="M0 0 C0.66 0 1.32 0 2 0 C3.31626692 3.61973402 4 6.09567131 4 10 C1.69 10 -0.62 10 -3 10 C-2.39009109 6.44219804 -1.4216319 3.3171411 0 0 Z " fill="#F1F1F0" transform="translate(287,164)"/>
<path d="M0 0 C0.66 0 1.32 0 2 0 C2.66 3.3 3.32 6.6 4 10 C1.69 10 -0.62 10 -3 10 C-2.49287967 6.28111761 -1.88391785 3.26545761 0 0 Z " fill="#F6F6F5" transform="translate(107,164)"/>
<path d="M0 0 C0.66 0 1.32 0 2 0 C2.66 3.3 3.32 6.6 4 10 C1.69 10 -0.62 10 -3 10 C-2.49287967 6.28111761 -1.88391785 3.26545761 0 0 Z " fill="#F7F7F7" transform="translate(172,164)"/>
<path d="M0 0 C2.08268593 -0.08126087 4.16628658 -0.13930839 6.25 -0.1875 C7.99023438 -0.23970703 7.99023438 -0.23970703 9.765625 -0.29296875 C13.22882755 0.02072713 14.59230906 0.53867238 17 3 C17 3.66 17 4.32 17 5 C14.83125748 4.49396008 13.00032373 4.00016187 11 3 C9.46331135 2.77532169 7.92031946 2.59203195 6.375 2.4375 C5.55773437 2.35371094 4.74046875 2.26992187 3.8984375 2.18359375 C3.27195313 2.12300781 2.64546875 2.06242188 2 2 C2 2.99 2 3.98 2 5 C1.34 5 0.68 5 0 5 C0 3.35 0 1.7 0 0 Z " fill="#989898" transform="translate(143,160)"/>
<path d="M0 0 C1.67542976 0.28604898 3.34385343 0.61781233 5 1 C5 1.99 5 2.98 5 4 C-0.94 4 -6.88 4 -13 4 C-13 3.34 -13 2.68 -13 2 C-12.14535156 1.93941406 -11.29070312 1.87882813 -10.41015625 1.81640625 C-8.75306641 1.69072266 -8.75306641 1.69072266 -7.0625 1.5625 C-5.96035156 1.48128906 -4.85820312 1.40007812 -3.72265625 1.31640625 C-1.08890097 1.29581916 -1.08890097 1.29581916 0 0 Z " fill="#727271" transform="translate(512,151)"/>
<path d="M0 0 C1.4540625 0.0309375 1.4540625 0.0309375 2.9375 0.0625 C3.5975 1.7125 4.2575 3.3625 4.9375 5.0625 C1.3075 5.0625 -2.3225 5.0625 -6.0625 5.0625 C-3.56765464 0.07280928 -3.56765464 0.07280928 0 0 Z " fill="#FCFCFC" transform="translate(464.0625,146.9375)"/>
<path d="M0 0 C4.95 0 9.9 0 15 0 C15 0.99 15 1.98 15 3 C13.06257659 3.02703381 11.12504521 3.04641125 9.1875 3.0625 C8.10855469 3.07410156 7.02960938 3.08570313 5.91796875 3.09765625 C3 3 3 3 0 2 C0 1.34 0 0.68 0 0 Z " fill="#9E9E9E" transform="translate(216,160)"/>
<path d="M0 0 C0.33 1.65 0.66 3.3 1 5 C-6.625 6 -6.625 6 -10 6 C-10 5.01 -10 4.02 -10 3 C-6.62637846 0.39749195 -4.23092172 -0.36265043 0 0 Z " fill="#888888" transform="translate(673,142)"/>
<path d="M0 0 C2.31 0 4.62 0 7 0 C7 1.98 7 3.96 7 6 C4.69 6 2.38 6 0 6 C0 4.02 0 2.04 0 0 Z " fill="#C6C6C6" transform="translate(687,132)"/>
<path d="M0 0 C0.66 0.99 1.32 1.98 2 3 C1.34 3 0.68 3 0 3 C-0.33 3.66 -0.66 4.32 -1 5 C-1.33 4.67 -1.66 4.34 -2 4 C-5.94836905 3.7367754 -8.60379269 3.91002627 -12 6 C-11.6875 4.125 -11.6875 4.125 -11 2 C-6.91569792 -0.72286806 -4.85409123 -0.38524534 0 0 Z " fill="#7E7E7C" transform="translate(702,92)"/>
<path d="M0 0 C1.32 0 2.64 0 4 0 C5 1 6 2 7 3 C9.29115564 4.1404407 11.61678025 5.05570538 14 6 C14 6.33 14 6.66 14 7 C9.19771544 7.33119204 6.83582992 7.43284049 2.5 5.1875 C1.675 4.465625 0.85 3.74375 0 3 C0 2.01 0 1.02 0 0 Z " fill="#9A9A9A" transform="translate(468,121)"/>
<path d="M0 0 C0.66 0.33 1.32 0.66 2 1 C2 2.32 2 3.64 2 5 C-5.75 5.125 -5.75 5.125 -8 4 C-8 3.34 -8 2.68 -8 2 C-8.66 1.67 -9.32 1.34 -10 1 C-6.49852959 -0.1671568 -3.67329964 -0.13357453 0 0 Z " fill="#717170" transform="translate(714,142)"/>
<path d="M0 0 C0.99 0 1.98 0 3 0 C3 4.29 3 8.58 3 13 C2.67 13 2.34 13 2 13 C1.67 16.3 1.34 19.6 1 23 C0.67 23 0.34 23 0 23 C0 15.41 0 7.82 0 0 Z " fill="#7A7A79" transform="translate(429,83)"/>
<path d="M0 0 C1.32 0 2.64 0 4 0 C3.64393309 2.58148508 3.16671807 3.82045747 1.375 5.75 C-1.83134123 7.43754802 -4.43348514 7.20576047 -8 7 C-8 6.34 -8 5.68 -8 5 C-6.865625 4.731875 -5.73125 4.46375 -4.5625 4.1875 C-3.386875 3.795625 -2.21125 3.40375 -1 3 C-0.67 2.01 -0.34 1.02 0 0 Z " fill="#8B8B8B" transform="translate(580,110)"/>
<path d="M0 0 C0 1.32 0 2.64 0 4 C-0.94875 4.309375 -1.8975 4.61875 -2.875 4.9375 C-5.86080408 5.87394742 -5.86080408 5.87394742 -8 7 C-8.99 6.67 -9.98 6.34 -11 6 C-11 4.35 -11 2.7 -11 1 C-10.67 2.32 -10.34 3.64 -10 5 C-9.34 5 -8.68 5 -8 5 C-7.71125 4.360625 -7.4225 3.72125 -7.125 3.0625 C-5.228943 -0.41360449 -4.0216034 0 0 0 Z " fill="#8E8E8E" transform="translate(603,92)"/>
<path d="M0 0 C1.98 0 3.96 0 6 0 C4.59527724 3.39474666 3.23607557 5.21164245 0 7 C-2.6794015 7.53382712 -5.26796991 7.77233083 -8 8 C-7.4225 7.731875 -6.845 7.46375 -6.25 7.1875 C-3.92636635 5.9611378 -1.96175354 4.75156566 0 3 C0 2.01 0 1.02 0 0 Z " fill="#7B7B79" transform="translate(876,160)"/>
<path d="M0 0 C0.99 0 1.98 0 3 0 C3 0.66 3 1.32 3 2 C3.66 2 4.32 2 5 2 C4.34 6.62 3.68 11.24 3 16 C2.67 16 2.34 16 2 16 C1.92652344 15.07767578 1.92652344 15.07767578 1.8515625 14.13671875 C1.77679687 13.32847656 1.70203125 12.52023438 1.625 11.6875 C1.55539062 10.88699219 1.48578125 10.08648437 1.4140625 9.26171875 C1.10435574 6.72775559 1.10435574 6.72775559 -1 4 C-0.625 1.8125 -0.625 1.8125 0 0 Z " fill="#848483" transform="translate(703,144)"/>
<path d="M0 0 C2 1 2 1 3.125 3.3125 C4 6 4 6 4 10 C3.01 9.67 2.02 9.34 1 9 C-0.1875 6.4375 -0.1875 6.4375 -1 4 C-3.97 3.67 -6.94 3.34 -10 3 C-10 2.67 -10 2.34 -10 2 C-6.7 2 -3.4 2 0 2 C0 1.34 0 0.68 0 0 Z " fill="#868686" transform="translate(178,172)"/>
<path d="M0 0 C0.33 0.66 0.66 1.32 1 2 C1.66 2.33 2.32 2.66 3 3 C0.37243948 5.5224581 -0.9140389 5.99258956 -4.625 6.3125 C-8 6 -8 6 -10 4 C-5.25 2.875 -5.25 2.875 -3 4 C-2.67 3.01 -2.34 2.02 -2 1 C-1.34 0.67 -0.68 0.34 0 0 Z " fill="#FDEEED" transform="translate(133,122)"/>
<path d="M0 0 C0.66 0.33 1.32 0.66 2 1 C1.67 1.66 1.34 2.32 1 3 C1.66 3.66 2.32 4.32 3 5 C0 7 0 7 -4 7 C-4 10.3 -4 13.6 -4 17 C-4.33 17 -4.66 17 -5 17 C-5.76681614 7.42331839 -5.76681614 7.42331839 -3.88671875 3.93359375 C-2.5 2.3125 -2.5 2.3125 0 0 Z " fill="#919191" transform="translate(456,143)"/>
<path d="M0 0 C4.29 0 8.58 0 13 0 C13 0.33 13 0.66 13 1 C9.7 1.66 6.4 2.32 3 3 C2.67 4.65 2.34 6.3 2 8 C1.34 8 0.68 8 0 8 C0 5.36 0 2.72 0 0 Z " fill="#979797" transform="translate(78,160)"/>
<path d="M0 0 C2.64 0 5.28 0 8 0 C8.33 1.32 8.66 2.64 9 4 C4.82412255 5.39195915 2.86525224 3.82323219 -1 2 C-0.67 1.34 -0.34 0.68 0 0 Z " fill="#6F6F6F" transform="translate(531,142)"/>
<path d="M0 0 C0.33 0 0.66 0 1 0 C1.12375 0.94875 1.2475 1.8975 1.375 2.875 C1.71687177 6.08667191 1.71687177 6.08667191 4 8 C3.01 8.33 2.02 8.66 1 9 C1 11.31 1 13.62 1 16 C0.67 14.68 0.34 13.36 0 12 C-0.66 12 -1.32 12 -2 12 C-2 9.69 -2 7.38 -2 5 C-1.34 5 -0.68 5 0 5 C0 3.35 0 1.7 0 0 Z " fill="#868686" transform="translate(80,163)"/>
<path d="M0 0 C1.134375 0.020625 2.26875 0.04125 3.4375 0.0625 C2.7775 1.7125 2.1175 3.3625 1.4375 5.0625 C-0.2125 5.0625 -1.8625 5.0625 -3.5625 5.0625 C-4.125 3.125 -4.125 3.125 -4.5625 1.0625 C-3.5625 0.0625 -3.5625 0.0625 0 0 Z M-6.5625 4.0625 C-4.5625 5.0625 -4.5625 5.0625 -4.5625 5.0625 Z " fill="#838382" transform="translate(543.5625,157.9375)"/>
<path d="M0 0 C0.99 0.33 1.98 0.66 3 1 C2.75 3.875 2.75 3.875 2 7 C-0.0625 8.375 -0.0625 8.375 -2 9 C-2 6.36 -2 3.72 -2 1 C-1.34 0.67 -0.68 0.34 0 0 Z " fill="#71716F" transform="translate(525,149)"/>
<path d="M0 0 C2.46800047 1.15173355 4.04783565 2.04783565 6 4 C6 4.99 6 5.98 6 7 C5.34 7 4.68 7 4 7 C3.67 7.99 3.34 8.98 3 10 C2.731875 9.236875 2.46375 8.47375 2.1875 7.6875 C1.05575888 5.12619116 0.08776599 3.80307062 -2 2 C-1.34 1.34 -0.68 0.68 0 0 Z " fill="#8D8D8D" transform="translate(673,93)"/>
<path d="M0 0 C0.33 0.66 0.66 1.32 1 2 C4.02934491 2.65772428 4.02934491 2.65772428 7 3 C6.01 4.485 6.01 4.485 5 6 C5.99 6.66 6.98 7.32 8 8 C5.03 7.67 2.06 7.34 -1 7 C-1 6.34 -1 5.68 -1 5 C-0.34 5 0.32 5 1 5 C0.67 3.35 0.34 1.7 0 0 Z " fill="#7F7F7F" transform="translate(764,160)"/>
<path d="M0 0 C1.98 0 3.96 0 6 0 C6 0.99 6 1.98 6 3 C5.01 3.495 5.01 3.495 4 4 C4.66 5.32 5.32 6.64 6 8 C3.53199953 6.84826645 1.95216435 5.95216435 0 4 C0 2.68 0 1.36 0 0 Z " fill="#838382" transform="translate(887,159)"/>
<path d="M0 0 C1.4540625 0.0309375 1.4540625 0.0309375 2.9375 0.0625 C-0.578125 4.75 -0.578125 4.75 -2.0625 6.0625 C-3.3825 6.0625 -4.7025 6.0625 -6.0625 6.0625 C-3.76028481 0.07674051 -3.76028481 0.07674051 0 0 Z " fill="#7F7F7F" transform="translate(815.0625,131.9375)"/>
<path d="M0 0 C1.32 1.65 2.64 3.3 4 5 C3.01 5.495 3.01 5.495 2 6 C2 6.99 2 7.98 2 9 C-1.36720387 7.60667426 -2.9859524 6.0210714 -5 3 C-4.360625 2.87625 -3.72125 2.7525 -3.0625 2.625 C-2.0415625 2.315625 -2.0415625 2.315625 -1 2 C-0.67 1.34 -0.34 0.68 0 0 Z " fill="#7C7C7B" transform="translate(864,158)"/>
<path d="M0 0 C0.33 0.99 0.66 1.98 1 3 C2.32 2.01 3.64 1.02 5 0 C5.66 0.33 6.32 0.66 7 1 C7 1.33 7 1.66 7 2 C7.66 2.33 8.32 2.66 9 3 C9 3.66 9 4.32 9 5 C6.69 5.66 4.38 6.32 2 7 C0 4 0 4 0 0 Z " fill="#898989" transform="translate(587,142)"/>
<path d="M0 0 C2.9375 0.375 2.9375 0.375 6 1 C6.33 1.66 6.66 2.32 7 3 C6.01 3 5.02 3 4 3 C4 3.66 4 4.32 4 5 C3.34 5 2.68 5 2 5 C1.67 5.66 1.34 6.32 1 7 C0.67 6.34 0.34 5.68 0 5 C-2.01669827 3.86649466 -2.01669827 3.86649466 -4 3 C-3.01 3 -2.02 3 -1 3 C-0.67 2.01 -0.34 1.02 0 0 Z " fill="#80807F" transform="translate(743,142)"/>
<path d="M0 0 C0.66 0 1.32 0 2 0 C2 1.65 2 3.3 2 5 C-2.62 5 -7.24 5 -12 5 C-12 4.67 -12 4.34 -12 4 C-7.9472484 3.01751476 -4.16138263 2.91840426 0 3 C0 2.01 0 1.02 0 0 Z " fill="#737373" transform="translate(677,100)"/>
<path d="M0 0 C0.33 0.99 0.66 1.98 1 3 C-2.3 3.33 -5.6 3.66 -9 4 C-9 3.01 -9 2.02 -9 1 C-6.04335481 -0.4783226 -3.25770263 -0.06032783 0 0 Z " fill="#7E7E7E" transform="translate(577,92)"/>
<path d="M0 0 C0.66 0 1.32 0 2 0 C2 1.32 2 2.64 2 4 C4.29629994 5.14814997 6.07698086 5.30769809 8.625 5.5625 C9.44226563 5.64628906 10.25953125 5.73007813 11.1015625 5.81640625 C11.72804688 5.87699219 12.35453125 5.93757812 13 6 C13 6.33 13 6.66 13 7 C8.71 7 4.42 7 0 7 C0 4.69 0 2.38 0 0 Z " fill="#9D9D9D" transform="translate(78,175)"/>
<path d="M0 0 C3.12290635 0.48578543 5.99580359 0.9986012 9 2 C8.67 2.99 8.34 3.98 8 5 C5.6875 5.3125 5.6875 5.3125 3 5 C1.1875 2.5 1.1875 2.5 0 0 Z " fill="#727270" transform="translate(890,162)"/>
<path d="M0 0 C2.31 0 4.62 0 7 0 C6.67 0.99 6.34 1.98 6 3 C4.15234375 3.73046875 4.15234375 3.73046875 1.9375 4.1875 C1.20402344 4.34605469 0.47054687 4.50460938 -0.28515625 4.66796875 C-1.13400391 4.83232422 -1.13400391 4.83232422 -2 5 C-1.34 3.35 -0.68 1.7 0 0 Z " fill="#707070" transform="translate(736,142)"/>
<path d="M0 0 C0.556875 0.7115625 0.556875 0.7115625 1.125 1.4375 C3.62646962 3.52205802 5.81593418 3.64621491 9 4 C9 4.66 9 5.32 9 6 C6.03 6 3.06 6 0 6 C-0.38218767 4.34385343 -0.71395102 2.67542976 -1 1 C-0.67 0.67 -0.34 0.34 0 0 Z " fill="#7E7E7E" transform="translate(619,111)"/>
<path d="M0 0 C0.33 0 0.66 0 1 0 C1 7.26 1 14.52 1 22 C0.01 22 -0.98 22 -2 22 C-2 21.01 -2 20.02 -2 19 C-1.34 19 -0.68 19 0 19 C0 12.73 0 6.46 0 0 Z " fill="#828281" transform="translate(705,96)"/>
<path d="M0 0 C2 3 2 3 1.625 5.6875 C1.41875 6.450625 1.2125 7.21375 1 8 C0.67 7.01 0.34 6.02 0 5 C-0.66 5 -1.32 5 -2 5 C-2 8.63 -2 12.26 -2 16 C-2.33 16 -2.66 16 -3 16 C-3.08133791 14.08404032 -3.13934367 12.16708068 -3.1875 10.25 C-3.22230469 9.18265625 -3.25710938 8.1153125 -3.29296875 7.015625 C-2.97082786 3.69972145 -2.22851086 2.40983327 0 0 Z " fill="#A4A4A4" transform="translate(499,95)"/>
<path d="M0 0 C0 1.98 0 3.96 0 6 C-1.65 6 -3.3 6 -5 6 C-5 4.35 -5 2.7 -5 1 C-2 0 -2 0 0 0 Z " fill="#6F6F6F" transform="translate(620,161)"/>
<path d="M0 0 C3.40320742 1.01176437 4.75725331 1.64843582 6.8125 4.625 C7.204375 5.40875 7.59625 6.1925 8 7 C6.68 6.67 5.36 6.34 4 6 C4 5.34 4 4.68 4 4 C3.01 4.33 2.02 4.66 1 5 C0.34 3.68 -0.32 2.36 -1 1 C-0.67 0.67 -0.34 0.34 0 0 Z " fill="#767676" transform="translate(773,142)"/>
<path d="M0 0 C0.33 0 0.66 0 1 0 C1.22142255 1.95689659 1.4267568 3.91561952 1.625 5.875 C1.74101562 6.96554688 1.85703125 8.05609375 1.9765625 9.1796875 C1.98429687 10.11039063 1.99203125 11.04109375 2 12 C1.34 12.66 0.68 13.32 0 14 C-0.85380428 11.03878992 -1.13517764 8.3912356 -1.125 5.3125 C-1.12757813 4.52488281 -1.13015625 3.73726563 -1.1328125 2.92578125 C-1 1 -1 1 0 0 Z " fill="#797979" transform="translate(469,100)"/>
<path d="M0 0 C0.99 0.33 1.98 0.66 3 1 C3.33 3.64 3.66 6.28 4 9 C2.68 8.67 1.36 8.34 0 8 C0 5.36 0 2.72 0 0 Z " fill="#8D8D8D" transform="translate(135,173)"/>
<path d="M0 0 C0.66 0.33 1.32 0.66 2 1 C2.59355614 3.64860427 2.74209269 6.29197322 3 9 C1.68 8.67 0.36 8.34 -1 8 C-1.04241723 5.66705225 -1.04092937 3.33297433 -1 1 C-0.67 0.67 -0.34 0.34 0 0 Z " fill="#989898" transform="translate(158,173)"/>
<path d="M0 0 C3 1 3 1 4 3 C4.13415472 5.6723621 4.04318541 8.32250488 4 11 C3.01 11.495 3.01 11.495 2 12 C1.855625 10.7625 1.71125 9.525 1.5625 8.25 C1.21311498 5.43495501 0.79620634 2.7298503 0 0 Z " fill="#858585" transform="translate(339,163)"/>
<path d="M0 0 C6.47556391 0.61090226 6.47556391 0.61090226 8.9375 2.4375 C10 4 10 4 10 6 C6.00452264 5.38531118 3.22493358 3.34540624 0 1 C0 0.67 0 0.34 0 0 Z " fill="#898989" transform="translate(243,160)"/>
<path d="M0 0 C0.66 0 1.32 0 2 0 C2 0.66 2 1.32 2 2 C2.99 2.33 3.98 2.66 5 3 C-0.94 3 -6.88 3 -13 3 C-13 2.67 -13 2.34 -13 2 C-8.94417058 1.36379146 -5.09781054 1 -1 1 C-0.67 0.67 -0.34 0.34 0 0 Z " fill="#7F7F7F" transform="translate(470,153)"/>
<path d="M0 0 C0.33 1.32 0.66 2.64 1 4 C-1.97 3.67 -4.94 3.34 -8 3 C-5.45189726 -0.82215411 -4.39145359 -1.46381786 0 0 Z " fill="#7F7F7E" transform="translate(813,164)"/>
<path d="M0 0 C0.8971875 0.309375 0.8971875 0.309375 1.8125 0.625 C1.173125 0.893125 0.53375 1.16125 -0.125 1.4375 C-2.51881686 2.51167752 -2.51881686 2.51167752 -3.1875 5.625 C-4.8375 5.625 -6.4875 5.625 -8.1875 5.625 C-8.5175 4.965 -8.8475 4.305 -9.1875 3.625 C-8.2903125 3.191875 -8.2903125 3.191875 -7.375 2.75 C-1.52083333 -0.26071429 -1.52083333 -0.26071429 0 0 Z " fill="#6E6E6E" transform="translate(776.1875,161.375)"/>
<path d="M0 0 C0.99 0.33 1.98 0.66 3 1 C2.34 2.98 1.68 4.96 1 7 C0.67 6.34 0.34 5.68 0 5 C-2.01669827 3.86649466 -2.01669827 3.86649466 -4 3 C-2.1875 1.4375 -2.1875 1.4375 0 0 Z " fill="#7D7D7B" transform="translate(558,142)"/>
<path d="M0 0 C1.98 0 3.96 0 6 0 C6 1.32 6 2.64 6 4 C4.02 4 2.04 4 0 4 C0 2.68 0 1.36 0 0 Z " fill="#7C7C7C" transform="translate(786,133)"/>
<path d="M0 0 C1.32 0 2.64 0 4 0 C3.6875 1.875 3.6875 1.875 3 4 C2.01 4.66 1.02 5.32 0 6 C-0.99 5.34 -1.98 4.68 -3 4 C-1.75 2 -1.75 2 0 0 Z " fill="#969696" transform="translate(514,110)"/>
<path d="M0 0 C0.625 1.8125 0.625 1.8125 1 4 C0.01 5.485 0.01 5.485 -1 7 C-1.39013716 8.9896995 -1.73202649 10.99019869 -2 13 C-2.33 13 -2.66 13 -3 13 C-3.08121924 11.39667209 -3.13929134 9.79215974 -3.1875 8.1875 C-3.22230469 7.29417969 -3.25710938 6.40085938 -3.29296875 5.48046875 C-2.95081002 2.58352485 -2.24606427 1.77444972 0 0 Z " fill="#878787" transform="translate(327,161)"/>
<path d="M0 0 C1.98 0 3.96 0 6 0 C5.67 1.65 5.34 3.3 5 5 C3.02 4.34 1.04 3.68 -1 3 C-0.67 2.01 -0.34 1.02 0 0 Z " fill="#7D7D7C" transform="translate(717,158)"/>
<path d="M0 0 C1.98 0 3.96 0 6 0 C6 2.31 6 4.62 6 7 C1.125 2.25 1.125 2.25 0 0 Z " fill="#BB2B30" transform="translate(302,128)"/>
<path d="M0 0 C0.66 0.33 1.32 0.66 2 1 C2 4 2 4 0 7 C-0.99 7 -1.98 7 -3 7 C-1.125 1.125 -1.125 1.125 0 0 Z " fill="#888888" transform="translate(621,93)"/>
<path d="M0 0 C0.99 0.66 1.98 1.32 3 2 C2.42655063 4.86724686 2.1385485 5.8614515 0 8 C-0.12375 7.360625 -0.2475 6.72125 -0.375 6.0625 C-0.684375 5.0415625 -0.684375 5.0415625 -1 4 C-1.66 3.67 -2.32 3.34 -3 3 C-3 2.34 -3 1.68 -3 1 C-2.01 0.67 -1.02 0.34 0 0 Z " fill="#828282" transform="translate(634,93)"/>
<path d="M0 0 C2 1 2 1 3 3 C0.04335481 4.4783226 -2.74229737 4.06032783 -6 4 C-4.03617993 2.49440461 -2.21736634 1.10868317 0 0 Z " fill="#8E8E8E" transform="translate(483,123)"/>
<path d="M0 0 C1.32 0.33 2.64 0.66 4 1 C2.515 3.475 2.515 3.475 1 6 C-0.65 5.67 -2.3 5.34 -4 5 C-2.68 3.35 -1.36 1.7 0 0 Z " fill="#8A8A8A" transform="translate(676,110)"/>
<path d="M0 0 C0.99 0.99 1.98 1.98 3 3 C2.34 4.65 1.68 6.3 1 8 C0.01 8 -0.98 8 -2 8 C-1.34 5.36 -0.68 2.72 0 0 Z " fill="#969696" transform="translate(100,174)"/>
<path d="M0 0 C1 3 1 3 0 6 C2.64 6 5.28 6 8 6 C8 6.33 8 6.66 8 7 C5.03 7 2.06 7 -1 7 C-1.625 4.625 -1.625 4.625 -2 2 C-1.34 1.34 -0.68 0.68 0 0 Z " fill="#7D7D7C" transform="translate(284,168)"/>
<path d="M0 0 C2.97 0.33 5.94 0.66 9 1 C9 1.33 9 1.66 9 2 C6.69 2 4.38 2 2 2 C2 2.99 2 3.98 2 5 C1.34 5 0.68 5 0 5 C0 3.35 0 1.7 0 0 Z " fill="#919292" transform="translate(143,160)"/>
<path d="M0 0 C0.99 0.99 1.98 1.98 3 3 C2.34 4.98 1.68 6.96 1 9 C0.34 9 -0.32 9 -1 9 C-1.09765625 2.84765625 -1.09765625 2.84765625 -1 1 C-0.67 0.67 -0.34 0.34 0 0 Z " fill="#767676" transform="translate(564,102)"/>
<path d="M0 0 C-0.33 1.65 -0.66 3.3 -1 5 C-1.99 4.34 -2.98 3.68 -4 3 C-6.0492094 2.54860541 -6.0492094 2.54860541 -8.1875 2.375 C-9.445625 2.25125 -10.70375 2.1275 -12 2 C-12 1.67 -12 1.34 -12 1 C-10.37512529 0.83211627 -8.75009558 0.66573213 -7.125 0.5 C-6.22007812 0.4071875 -5.31515625 0.314375 -4.3828125 0.21875 C-2 0 -2 0 0 0 Z " fill="#9E9E9E" transform="translate(136,169)"/>
<path d="M0 0 C-0.33 1.32 -0.66 2.64 -1 4 C-2.32 4 -3.64 4 -5 4 C-5 3.34 -5 2.68 -5 2 C-5.66 1.67 -6.32 1.34 -7 1 C-4.53721199 -0.231394 -2.7204945 -0.07159196 0 0 Z " fill="#6F6F6E" transform="translate(506,163)"/>
<path d="M0 0 C1.98 0.495 1.98 0.495 4 1 C4.33 2.32 4.66 3.64 5 5 C2.03 4.505 2.03 4.505 -1 4 C-0.67 2.68 -0.34 1.36 0 0 Z " fill="#707070" transform="translate(669,142)"/>
<path d="M0 0 C1.65 0 3.3 0 5 0 C5 1.32 5 2.64 5 4 C3.35 4 1.7 4 0 4 C0 2.68 0 1.36 0 0 Z " fill="#797979" transform="translate(688,133)"/>
<path d="M0 0 C6.52307692 -0.36923077 6.52307692 -0.36923077 8.9375 1.5 C9.288125 1.995 9.63875 2.49 10 3 C2.25 3.125 2.25 3.125 0 2 C0 1.34 0 0.68 0 0 Z " fill="#A0A0A0" transform="translate(472,125)"/>
<path d="M0 0 C0.66 0.33 1.32 0.66 2 1 C1.67 2.98 1.34 4.96 1 7 C0.01 7 -0.98 7 -2 7 C-1.125 1.125 -1.125 1.125 0 0 Z " fill="#979797" transform="translate(165,175)"/>
<path d="M0 0 C0.99 0.33 1.98 0.66 3 1 C1.68 3.31 0.36 5.62 -1 8 C-1.33 8 -1.66 8 -2 8 C-1.125 1.125 -1.125 1.125 0 0 Z " fill="#6F6F6E" transform="translate(820,149)"/>
<path d="M0 0 C1.32 1.65 2.64 3.3 4 5 C3.67 5.66 3.34 6.32 3 7 C1.68 6.34 0.36 5.68 -1 5 C-0.67 3.35 -0.34 1.7 0 0 Z " fill="#8C8C8C" transform="translate(471,110)"/>
<path d="M0 0 C2.0625 0.4375 2.0625 0.4375 4 1 C2.37660195 2.70884005 0.70680947 4.37446717 -1 6 C-1.66 6 -2.32 6 -3 6 C-1.125 1.125 -1.125 1.125 0 0 Z " fill="#8E8E8E" transform="translate(610,82)"/>
<path d="M0 0 C0.33 0.66 0.66 1.32 1 2 C1.99 2.33 2.98 2.66 4 3 C3.34 3 2.68 3 2 3 C1.67 4.32 1.34 5.64 1 7 C0.01 7 -0.98 7 -2 7 C-1.34 4.69 -0.68 2.38 0 0 Z " fill="#A3A3A3" transform="translate(170,161)"/>
<path d="M0 0 C2.35953094 2.35953094 2.49141413 3.77895617 3 7 C1.35 6.67 -0.3 6.34 -2 6 C-1.34 4.02 -0.68 2.04 0 0 Z " fill="#828282" transform="translate(880,146)"/>
<path d="M0 0 C1.37562854 1.28965176 2.70766393 2.62689293 4 4 C4 4.66 4 5.32 4 6 C2.68 6 1.36 6 0 6 C-1 3 -1 3 0 0 Z " fill="#7A7A7A" transform="translate(905,143)"/>
<path d="M0 0 C2 2 2 2 2 5 C0.35 4.67 -1.3 4.34 -3 4 C-3 3.01 -3 2.02 -3 1 C-2.01 0.67 -1.02 0.34 0 0 Z " fill="#C01011" transform="translate(76,138)"/>
<path d="M0 0 C0.33 0.99 0.66 1.98 1 3 C2.32 2.34 3.64 1.68 5 1 C5 1.99 5 2.98 5 4 C4.01 4.33 3.02 4.66 2 5 C1.67 5.66 1.34 6.32 1 7 C0.67 4.69 0.34 2.38 0 0 Z " fill="#8F8F8F" transform="translate(526,93)"/>
<path d="M0 0 C1.32 0.66 2.64 1.32 4 2 C4 2.99 4 3.98 4 5 C1.13275314 4.42655063 0.1385485 4.1385485 -2 2 C-1.34 2 -0.68 2 0 2 C0 1.34 0 0.68 0 0 Z " fill="#888888" transform="translate(512,93)"/>
</svg>
