<?xml version="1.0" encoding="iso-8859-1"?>
<!-- Uploaded to: SVG Repo, www.svgrepo.com, Generator: SVG Repo Mixer Tools -->
<svg height="800px" width="800px" version="1.1" id="Layer_1" xmlns="http://www.w3.org/2000/svg" xmlns:xlink="http://www.w3.org/1999/xlink" 
	 viewBox="0 0 511.88 511.88" xml:space="preserve">
<circle style="fill:#FFE356;" cx="255.94" cy="255.94" r="255.94"/>
<g>
	<polygon style="fill:#596366;" points="82.365,334.599 427.364,334.599 427.364,346.075 82.365,346.075 	"/>
	<path style="fill:#596366;" d="M365.68,307.583c25.343,0,46.861,16.019,54.99,38.493H310.571
		c8.248-22.474,29.766-38.493,54.989-38.493H365.68z"/>
</g>
<path style="fill:#FFFFFF;" d="M325.275,166.762h65.151c9.563,0,13.389,8.846,17.334,17.573l29.647,65.868
	c1.554,3.467,2.271,6.814,2.152,10.639l-2.032,73.758h-24.148c-10.639-15.182-28.092-25.104-47.817-25.104
	s-37.178,9.922-47.817,25.104h-9.922V184.334c0-9.683,7.77-17.573,17.334-17.573H325.275z"/>
<circle style="fill:#6B7F9E;" cx="365.68" cy="366.158" r="47.817"/>
<circle style="fill:#ECF0F1;" cx="365.68" cy="366.158" r="28.451"/>
<circle style="fill:#FFFFFF;" cx="365.68" cy="366.158" r="13.747"/>
<path style="fill:#5FDC68;" d="M296.106,157.079H80.213c-6.455,0-8.607,6.097-11.835,11.835l-48.654,86.668
	c-4.304,7.77-1.913,16.616,3.108,23.908l30.722,43.992c3.706,5.26,8.248,10.998,14.704,10.998h227.848
	c6.455,0,11.835-5.26,11.835-11.835V168.794c0-6.455-5.26-11.835-11.835-11.835V157.079z"/>
<path style="fill:#7BEB82;" d="M152.895,158.752v173.934c0,5.499-8.488,5.499-8.488,0V158.752
	C144.407,153.253,152.895,153.253,152.895,158.752z M287.26,158.752v173.934c0,5.499-8.487,5.499-8.487,0V158.752
	C278.773,153.253,287.26,153.253,287.26,158.752z M253.669,158.752v173.934c0,5.499-8.488,5.499-8.488,0V158.752
	C245.181,153.253,253.669,153.253,253.669,158.752z M220.078,158.752v173.934c0,5.499-8.488,5.499-8.488,0V158.752
	C211.59,153.253,220.078,153.253,220.078,158.752z M186.486,158.752v173.934c0,5.499-8.488,5.499-8.488,0V158.752
	C177.999,153.253,186.486,153.253,186.486,158.752z"/>
<g>
	<path style="fill:#56BF5D;" d="M132.692,157.079h-3.108l-40.525,85.353c-1.076,2.391-1.793,4.543-2.152,7.173l-4.304,33.233
		c-0.12,1.076-0.239,2.032-0.239,3.108v48.773h3.108v-48.773c0-1.076,0.12-2.032,0.239-3.108l4.304-33.233
		c0.359-2.63,0.956-4.782,2.152-7.173L132.692,157.079z"/>
	<polygon style="fill:#56BF5D;" points="111.174,242.671 139.984,282.479 129.106,290.368 100.296,250.561 	"/>
</g>
<polygon style="fill:#ECF0F1;" points="80.332,206.808 108.425,244.823 102.209,249.246 74.236,211.231 "/>
<circle style="fill:#FFE356;" cx="78.42" cy="211.231" r="10.281"/>
<circle style="fill:#FEFEFE;" cx="78.42" cy="211.231" r="4.184"/>
<path style="fill:#6B7F9E;" d="M219.599,342.728h57.141c5.499,0,9.922,4.543,9.922,9.922v14.823c0,5.499-4.543,9.922-9.922,9.922
	h-57.141c-5.499,0-9.922-4.543-9.922-9.922V352.65C209.677,347.151,214.22,342.728,219.599,342.728z"/>
<circle style="fill:#FFE356;" cx="134.246" cy="286.065" r="10.281"/>
<circle style="fill:#FEFEFE;" cx="134.246" cy="286.065" r="4.184"/>
<path style="fill:#8597B1;" d="M348.346,186.247h40.405c6.097,0,10.042,4.901,12.193,9.922l21.996,51.164
	c2.152,5.021-1.195,11.476-7.292,11.476h-67.302c-6.097,0-10.998-4.423-10.998-9.922v-52.718
	C337.349,190.67,342.369,186.247,348.346,186.247z"/>
<path style="fill:#6C7678;" d="M427.364,315.114h13.986c4.901,0,8.966,4.064,8.966,8.966v21.757c0,4.901-4.064,8.966-8.966,8.966
	h-13.986V315.114z"/>
<path style="fill:#596366;" d="M153.492,307.583c25.343,0,46.861,16.019,54.989,38.493H98.383
	c8.248-22.474,29.766-38.493,54.989-38.493H153.492z"/>
<circle style="fill:#6B7F9E;" cx="153.492" cy="366.158" r="47.817"/>
<circle style="fill:#ECF0F1;" cx="153.492" cy="366.158" r="28.451"/>
<circle style="fill:#FFFFFF;" cx="153.492" cy="366.158" r="13.747"/>
<circle style="fill:#5DA668;" cx="215.296" cy="237.65" r="52.12"/>
<circle style="fill:#FFE356;" cx="215.296" cy="237.65" r="47.1"/>
<g>
	<path style="fill:#56BF5D;" d="M189.116,225.218l16.138-4.423l4.423,16.138l-3.706-2.152l-7.173,12.432h11.117h-11.117
		c-5.499,9.563,1.435,15.899,12.313,15.899h-14.465c-5.14,0-9.563-2.51-12.193-7.053c-2.63-4.423-2.63-9.563,0-13.986l8.488-14.704
		L189.116,225.218z"/>
	<path style="fill:#56BF5D;" d="M218.763,266.34l-11.835-11.835l11.835-11.835v4.543h13.15l0,0
		c10.998,0.837,12.432-8.368,7.651-16.616l6.575,11.476c2.63,4.423,2.63,9.563,0,13.986c-2.63,4.423-7.053,7.053-12.193,7.053
		h-15.182V266.34z"/>
	<path style="fill:#56BF5D;" d="M227.489,209.797l7.173,12.552l3.945-2.271l-4.304,16.138l-16.138-4.304l3.586-2.032l-6.455-11.237
		c-7.77-14.226-17.334,0.12-17.692,0.717l5.499-9.563c2.63-4.423,7.053-7.053,12.193-7.053S224.859,205.254,227.489,209.797z"/>
</g>
<ellipse style="fill:#C6CBD6;" cx="347.39" cy="270.763" rx="13.986" ry="3.945"/>
<path style="fill:#E4E7ED;" d="M347.39,267.297c5.26,0,9.802,0.837,12.193,2.032c0.359,0.12,0.598,0.478,0.598,0.837
	c0,0.359-0.239,0.717-0.598,0.837c-2.391,1.195-6.933,2.032-12.193,2.032s-9.802-0.837-12.193-2.032
	c-0.359-0.12-0.598-0.478-0.598-0.837c0-0.359,0.239-0.717,0.598-0.837C337.588,268.134,342.13,267.297,347.39,267.297z"/>
<g>
	<path style="fill:#FF7069;" d="M377.993,157.437h5.14c1.435,0,2.63,1.195,2.63,2.63v6.694h-10.281v-6.694
		c0-1.435,1.195-2.63,2.63-2.63H377.993z"/>
	<path style="fill:#FF7069;" d="M433.7,282.598h4.543c1.674,0,2.989,1.315,2.989,2.989v12.432c0,1.674-1.315,2.989-2.989,2.989
		H433.7c-1.674,0-2.989-1.315-2.989-2.989v-12.432C430.711,283.913,432.026,282.598,433.7,282.598z"/>
</g>
<path style="fill:#C6CBD6;" d="M326.47,185.171h1.674v137.952c-0.598,0.478-1.076,0.956-1.674,1.435V185.052V185.171z"/>
<path style="fill:#8597B1;" d="M216.252,347.51h63.836c0.956,0,1.674,0.717,1.674,1.674l0,0c0,0.956-0.717,1.674-1.674,1.674
	h-63.836c-0.956,0-1.674-0.717-1.674-1.674l0,0C214.579,348.227,215.296,347.51,216.252,347.51z"/>
<path style="fill:#5D718F;" d="M346.075,191.985h40.405c6.097,0,10.042,4.901,12.193,9.922l21.996,51.164
	c0.478,1.076,0.717,2.271,0.717,3.467c2.271-2.391,2.989-5.977,1.674-9.205l-21.996-51.164c-2.152-5.021-6.097-9.922-12.193-9.922
	h-40.405c-5.977,0-10.759,4.304-10.998,9.563c2.032-2.271,5.14-3.825,8.727-3.825H346.075z"/>
</svg>