<?xml version="1.0" encoding="iso-8859-1"?>
<!-- Uploaded to: SVG Repo, www.svgrepo.com, Generator: SVG Repo Mixer Tools -->
<svg version="1.1" id="Layer_1" xmlns="http://www.w3.org/2000/svg" xmlns:xlink="http://www.w3.org/1999/xlink" 
	 viewBox="0 0 512 512" xml:space="preserve">
<circle style="fill:#FFB9B0;" cx="256" cy="256" r="256"/>
<path style="fill:#EF998E;" d="M512,256c0-13.617-1.074-26.983-3.122-40.024L391.52,98.618L166.826,286.02l-56.063-56.063
	l-1.295,23.169l1.09,1.09l-9.685,11.479l62.835,62.835l-43.227,14.026l31.954,31.954l-18.403,8.702l19.177,19.177l-10.986,7.544
	l101.779,101.779C247.979,511.895,251.976,512,256,512C397.384,512,512,397.384,512,256z M177.114,324.179l1.703-1.703l0.869,0.869
	L177.114,324.179z"/>
<rect x="120.479" y="98.625" style="fill:#FF6262;" width="271.032" height="243.933"/>
<g>
	<rect x="254.845" y="98.625" style="fill:#FF314F;" width="136.671" height="243.933"/>
	<path style="fill:#FF314F;" d="M156.619,267.814h-50.924c-3.629,0-6.572-2.943-6.572-6.572v-27.105
		c0-3.629,2.943-6.572,6.572-6.572s6.572,2.943,6.572,6.572v20.533h44.353c3.629,0,6.572,2.943,6.572,6.572
		C163.188,264.871,160.247,267.814,156.619,267.814z"/>
	<path style="fill:#FF314F;" d="M406.304,267.814h-50.922c-3.629,0-6.572-2.943-6.572-6.572s2.943-6.572,6.572-6.572h44.353v-20.533
		c0-3.629,2.943-6.572,6.572-6.572s6.572,2.943,6.572,6.572v27.105C412.875,264.871,409.933,267.814,406.304,267.814z"/>
</g>
<g>
	<path style="fill:#272525;" d="M184.535,413.382h-34.971c-5.268,0-9.538-4.27-9.538-9.538v-41.267c0-5.268,4.27-9.538,9.538-9.538
		h34.971c5.268,0,9.538,4.27,9.538,9.538v41.267C194.074,409.112,189.804,413.382,184.535,413.382z"/>
	<path style="fill:#272525;" d="M362.436,413.382h-34.971c-5.268,0-9.538-4.27-9.538-9.538v-41.267c0-5.268,4.27-9.538,9.538-9.538
		h34.971c5.268,0,9.538,4.27,9.538,9.538v41.267C371.974,409.112,367.704,413.382,362.436,413.382z"/>
</g>
<path style="fill:#A30F44;" d="M377.968,383.21H134.032V182.12c0-23.664,19.184-42.846,42.846-42.846h158.244
	c23.664,0,42.846,19.184,42.846,42.846V383.21z"/>
<path style="fill:#7F0838;" d="M377.968,182.12c0-23.664-19.182-42.846-42.846-42.846h-80.27v243.938h123.116V182.12z"/>
<path style="fill:#FFFFFF;" d="M248.596,149.54h-65.057c-21.671,0-39.24,17.568-39.24,39.24v72.463h104.296V149.54z"/>
<path style="fill:#D0D1D3;" d="M328.463,149.54h-65.057v111.702h104.296V188.78C367.702,167.109,350.134,149.54,328.463,149.54z"/>
<path style="fill:#FEE187;" d="M377.968,299.765h-44.415c-15.679,0-28.388,12.891-28.388,28.791v1.452h72.802V299.765z"/>
<path style="fill:#FFEDB5;" d="M134.032,299.765h44.415c15.679,0,28.388,12.891,28.388,28.791v1.452h-72.802V299.765z"/>
<rect x="134.034" y="349.332" style="fill:#273B7A;" width="243.933" height="33.883"/>
<rect x="254.845" y="349.332" style="fill:#121149;" width="123.121" height="33.883"/>
</svg>