<?xml version="1.0" encoding="iso-8859-1"?>
<!-- Uploaded to: SVG Repo, www.svgrepo.com, Generator: SVG Repo Mixer Tools -->
<svg height="800px" width="800px" version="1.1" id="Layer_1" xmlns="http://www.w3.org/2000/svg" xmlns:xlink="http://www.w3.org/1999/xlink" 
	 viewBox="0 0 512 512" xml:space="preserve">
<path style="fill:#2A5637;" d="M319.318,0H192.683c-9.044,0-16.375,7.332-16.375,16.375s7.332,16.375,16.375,16.375h126.635
	c9.043,0,16.375-7.332,16.375-16.375S328.362,0,319.318,0z"/>
<path style="fill:#4E7F4B;" d="M256.001,0h-63.318c-9.044,0-16.375,7.332-16.375,16.375s7.332,16.375,16.375,16.375h63.318V0z"/>
<path style="fill:#91C0F1;" d="M418.419,44.498c-3.084-3.181-7.327-5.198-11.759-5.198H105.34c-4.431,0-8.673,2.016-11.759,5.198
	c-3.085,3.181-4.748,7.588-4.609,12.017l13.698,439.792c0.275,8.842,7.522,15.693,16.368,15.693h273.924
	c8.846,0,16.092-6.797,16.368-15.637l13.697-439.961C423.166,51.973,421.503,47.68,418.419,44.498z"/>
<path style="fill:#D7EDF3;" d="M256.001,39.301H105.34c-4.431,0-8.673,2.016-11.759,5.198c-3.085,3.181-4.748,7.588-4.609,12.017
	l13.698,439.792c0.275,8.842,7.522,15.693,16.368,15.693h136.962V39.301z"/>
<path style="fill:#489B6D;" d="M389.558,27.292H122.443c-30.919,0-56.395,25.043-56.395,55.962v24.714
	c0,9.044,7.654,16.484,16.697,16.484h346.51c9.044,0,16.697-7.44,16.697-16.484V83.254
	C445.954,52.335,420.477,27.292,389.558,27.292z"/>
<path style="fill:#A2CE86;" d="M256.001,27.292H122.443c-30.919,0-56.395,25.043-56.395,55.962v24.714
	c0,9.044,7.654,16.484,16.697,16.484h173.256V27.292z"/>
<path style="fill:#489B6D;" d="M217.819,395.003c-0.408,0-0.819-0.015-1.232-0.046l-35.22-2.62
	c-6.288-0.466-12.144-3.246-16.484-7.825c-7.406-7.812-9.053-19.484-4.099-29.044l24.668-47.588
	c4.163-8.029,14.045-11.164,22.075-7.002c8.028,4.163,11.165,14.046,7.002,22.075l-19.471,37.563l23.961,1.783
	c9.018,0.67,15.786,8.526,15.115,17.544C233.491,388.448,226.311,395.003,217.819,395.003z"/>
<path style="fill:#A2CE86;" d="M211.16,355.269c-7.644,0-14.481-5.381-16.039-13.165l-2.473-12.348l-11.506,5.118
	c-8.263,3.676-17.942-0.044-21.616-8.307c-3.676-8.263,0.044-17.942,8.307-21.616l30.201-13.434
	c4.545-2.023,9.761-1.868,14.178,0.417c4.418,2.285,7.558,6.454,8.534,11.331l6.489,32.411c1.775,8.868-3.974,17.495-12.841,19.27
	C213.307,355.165,212.225,355.269,211.16,355.269z"/>
<path style="fill:#489B6D;" d="M275.177,391.975c-9.027,0-16.355-7.307-16.375-16.338c-0.021-9.044,7.295-16.392,16.338-16.412
	l42.309-0.095l-9.494-22.072c-3.573-8.308,0.264-17.94,8.572-21.514c8.307-3.574,17.94,0.263,21.514,8.572l13.956,32.444
	c2.492,5.792,2.735,12.268,0.68,18.233c-3.506,10.181-13.096,17.037-23.863,17.061l-53.6,0.121
	C275.203,391.975,275.189,391.975,275.177,391.975z M321.913,369.502h0.011H321.913z"/>
<path style="fill:#A2CE86;" d="M290.943,412.51c-3.572,0-7.168-1.163-10.181-3.559l-25.872-20.573
	c-3.892-3.095-6.168-7.792-6.183-12.765c-0.015-4.974,2.229-9.684,6.104-12.804l25.743-20.735c7.042-5.672,17.352-4.563,23.025,2.48
	c5.673,7.044,4.562,17.351-2.48,23.025l-9.808,7.899l9.857,7.838c7.078,5.629,8.254,15.93,2.625,23.009
	C300.538,410.393,295.763,412.51,290.943,412.51z"/>
<path style="fill:#489B6D;" d="M295.992,298.832c-5.528,0-10.923-2.799-14.006-7.869l-21.984-36.15l-13.969,19.55
	c-5.259,7.358-15.487,9.06-22.844,3.803c-7.358-5.258-9.061-15.486-3.803-22.843l20.533-28.735
	c3.667-5.131,9.081-8.69,15.245-10.021c10.526-2.272,21.358,2.383,26.953,11.583l27.851,45.796c4.7,7.727,2.244,17.801-5.482,22.5
	C301.828,298.063,298.892,298.832,295.992,298.832z"/>
<path style="fill:#A2CE86;" d="M301.106,307.488c-1.885,0-3.777-0.325-5.593-0.985l-31.066-11.29
	c-8.5-3.089-12.886-12.483-9.797-20.983c3.089-8.5,12.484-12.888,20.983-9.797l11.836,4.301l1.604-12.491
	c1.152-8.97,9.357-15.307,18.327-14.157c8.97,1.152,15.309,9.357,14.157,18.327l-4.208,32.785
	c-0.633,4.933-3.474,9.311-7.721,11.898C307.03,306.68,304.077,307.488,301.106,307.488z"/>
</svg>