<svg enable-background="new 0 0 512 512" viewBox="0 0 512 512" xmlns="http://www.w3.org/2000/svg"><path d="m424.08 69h-103.08v-30.316c0-19.395-15.585-34.684-34.979-34.684h-60.041c-19.396 0-34.98 15.289-34.98 34.684v30.316h-103.08c-6.385 0-11.92 5.262-11.92 11.646v45.691c0 6.385 5.535 11.663 11.92 11.663h12.056c-.021.512.024 1.026.024 1.543v334.065c0 20.098 16.229 36.392 36.327 36.392h239.347c20.097 0 36.326-16.294 36.326-36.392v-334.065c0-.518.046-1.031.024-1.543h12.056c6.384 0 11.92-5.278 11.92-11.662v-45.692c0-6.384-5.535-11.646-11.92-11.646zm-198.08-30h60v30h-60z" fill="#597b91"/><path d="m412.063 165.593h-312.126v-26.05h312.127v26.05zm-228.735 282.782v-233.087c0-3.976-3.224-7.2-7.2-7.2h-10.248c-3.976 0-7.2 3.224-7.2 7.2v233.088c0 3.976 3.224 7.2 7.2 7.2h10.248c3.976-.001 7.2-3.224 7.2-7.201zm84.996 0v-233.087c0-3.976-3.224-7.2-7.2-7.2h-10.248c-3.976 0-7.2 3.224-7.2 7.2v233.088c0 3.976 3.224 7.2 7.2 7.2h10.248c3.977-.001 7.2-3.224 7.2-7.201zm84.997 0v-233.087c0-3.976-3.224-7.2-7.2-7.2h-10.248c-3.976 0-7.2 3.224-7.2 7.2v233.088c0 3.976 3.224 7.2 7.2 7.2h10.248c3.976-.001 7.2-3.224 7.2-7.201z" fill="#2b3b47"/></svg>